999
dxfrw 0.6.3
  0
SECTION
  2
HEADER
  9
$ACADVER
  1
AC1021
  9
$DWGCODEPAGE
  3
ANSI_1252
  9
$INSBASE
 10
0
 20
0
 30
0
  9
$EXTMIN
 10
-1.532710999999983
 20
-1.536341
 30
0
  9
$EXTMAX
 10
203.480007
 20
180.3711
 30
0
  9
$LIMMIN
 10
-0.5
 20
-0.5
  9
$LIMMAX
 10
5
 20
5
  9
$ORTHOMODE
 70
    0
  9
$REGENMODE
 70
    1
  9
$FILLMODE
 70
    1
  9
$QTEXTMODE
 70
    0
  9
$MIRRTEXT
 70
    1
  9
$LTSCALE
 40
1
  9
$ATTMODE
 70
    1
  9
$TEXTSIZE
 40
0.2
  9
$TRACEWID
 40
0.05
  9
$TEXTSTYLE
  7
Standard
  9
$CLAYER
  8
0
  9
$CELTYPE
  6
ByLayer
  9
$CECOLOR
 62
  256
  9
$CELTSCALE
 40
1
  9
$DISPSILH
 70
    0
  9
$DIMSCALE
 40
1
  9
$DIMASZ
 40
0.18
  9
$DIMEXO
 40
0.0625
  9
$DIMDLI
 40
0.38
  9
$DIMRND
 40
0
  9
$DIMDLE
 40
0
  9
$DIMEXE
 40
0.18
  9
$DIMTP
 40
0
  9
$DIMTM
 40
0
  9
$DIMTXT
 40
0.18
  9
$DIMCEN
 40
0.09
  9
$DIMTSZ
 40
0
  9
$DIMTOL
 70
    0
  9
$DIMLIM
 70
    0
  9
$DIMTIH
 70
    1
  9
$DIMTOH
 70
    1
  9
$DIMSE1
 70
    0
  9
$DIMSE2
 70
    0
  9
$DIMTAD
 70
    0
  9
$DIMZIN
 70
    0
  9
$DIMBLK
  1

  9
$DIMASO
 70
    1
  9
$DIMSHO
 70
    1
  9
$DIMPOST
  1

  9
$DIMAPOST
  1

  9
$DIMALT
 70
    0
  9
$DIMALTD
 70
    2
  9
$DIMALTF
 40
25.4
  9
$DIMLFAC
 40
1
  9
$DIMTOFL
 70
    0
  9
$DIMTVP
 40
0
  9
$DIMTIX
 70
    0
  9
$DIMSOXD
 70
    0
  9
$DIMSAH
 70
    0
  9
$DIMBLK1
  1

  9
$DIMBLK2
  1

  9
$DIMSTYLE
  2
Standard
  9
$DIMCLRD
 70
    0
  9
$DIMCLRE
 70
    0
  9
$DIMCLRT
 70
    0
  9
$DIMTFAC
 40
1
  9
$DIMGAP
 40
0.09
  9
$DIMJUST
 70
    0
  9
$DIMSD1
 70
    0
  9
$DIMSD2
 70
    0
  9
$DIMTOLJ
 70
    1
  9
$DIMTZIN
 70
    0
  9
$DIMALTZ
 70
    0
  9
$DIMALTTZ
 70
    0
  9
$DIMUPT
 70
    0
  9
$DIMDEC
 70
    4
  9
$DIMTDEC
 70
    4
  9
$DIMALTU
 70
    2
  9
$DIMALTTD
 70
    2
  9
$DIMTXSTY
  7
Standard
  9
$DIMAUNIT
 70
    0
  9
$DIMADEC
 70
    0
  9
$DIMALTRND
 40
0
  9
$DIMAZIN
 70
    0
  9
$DIMDSEP
 70
   46
  9
$DIMATFIT
 70
    3
  9
$DIMFRAC
 70
    0
  9
$DIMLDRBLK
  1

  9
$DIMLUNIT
 70
    2
  9
$DIMLWD
 70
   -2
  9
$DIMLWE
 70
   -2
  9
$DIMTMOVE
 70
    0
  9
$DIMFXL
 40
1
  9
$DIMFXLON
 70
    0
  9
$DIMJOGANG
 40
0.785398
  9
$DIMTFILL
 70
    0
  9
$DIMTFILLCLR
 70
    0
  9
$DIMARCSYM
 70
    0
  9
$DIMLTYPE
  6

  9
$DIMLTEX1
  6

  9
$DIMLTEX2
  6

  9
$LUNITS
 70
    2
  9
$LUPREC
 70
    4
  9
$SKETCHINC
 40
0.1
  9
$FILLETRAD
 40
0.5
  9
$AUNITS
 70
    0
  9
$AUPREC
 70
    0
  9
$MENU
  1
.
  9
$ELEVATION
 40
0
  9
$PELEVATION
 40
0
  9
$THICKNESS
 40
0
  9
$LIMCHECK
 70
    0
  9
$CHAMFERA
 40
0
  9
$CHAMFERB
 40
0
  9
$CHAMFERC
 40
0
  9
$CHAMFERD
 40
0
  9
$SKPOLY
 70
    0
  9
$USRTIMER
 70
    1
  9
$ANGBASE
 50
0
  9
$ANGDIR
 70
    0
  9
$PDMODE
 70
    0
  9
$PDSIZE
 40
0
  9
$PLINEWID
 40
0
  9
$SPLFRAME
 70
    0
  9
$SPLINETYPE
 70
    6
  9
$SPLINESEGS
 70
    8
  9
$HANDSEED
  5
20000
  9
$SURFTAB1
 70
    6
  9
$SURFTAB2
 70
    6
  9
$SURFTYPE
 70
    6
  9
$SURFU
 70
    6
  9
$SURFV
 70
    6
  9
$UCSBASE
  2

  9
$UCSNAME
  2

  9
$UCSORG
 10
0
 20
0
 30
0
  9
$UCSXDIR
 10
1
 20
0
 30
0
  9
$UCSYDIR
 10
0
 20
1
 30
0
  9
$UCSORTHOREF
  2

  9
$UCSORTHOVIEW
 70
    0
  9
$UCSORGTOP
 10
0
 20
0
 30
0
  9
$UCSORGBOTTOM
 10
0
 20
0
 30
0
  9
$UCSORGLEFT
 10
0
 20
0
 30
0
  9
$UCSORGRIGHT
 10
0
 20
0
 30
0
  9
$UCSORGFRONT
 10
0
 20
0
 30
0
  9
$UCSORGBACK
 10
0
 20
0
 30
0
  9
$PUCSBASE
  2

  9
$PUCSNAME
  2

  9
$PUCSORG
 10
0
 20
0
 30
0
  9
$PUCSXDIR
 10
1
 20
0
 30
0
  9
$PUCSYDIR
 10
0
 20
1
 30
0
  9
$PUCSORTHOREF
  2

  9
$PUCSORTHOVIEW
 70
    0
  9
$PUCSORGTOP
 10
0
 20
0
 30
0
  9
$PUCSORGBOTTOM
 10
0
 20
0
 30
0
  9
$PUCSORGLEFT
 10
0
 20
0
 30
0
  9
$PUCSORGRIGHT
 10
0
 20
0
 30
0
  9
$PUCSORGFRONT
 10
0
 20
0
 30
0
  9
$PUCSORGBACK
 10
0
 20
0
 30
0
  9
$USERI1
 70
    0
  9
$USERI2
 70
    0
  9
$USERI3
 70
    0
  9
$USERI4
 70
    0
  9
$USERI5
 70
    0
  9
$USERR1
 40
0
  9
$USERR2
 40
0
  9
$USERR3
 40
0
  9
$USERR4
 40
0
  9
$USERR5
 40
0
  9
$WORLDVIEW
 70
    1
  9
$SHADEDGE
 70
    3
  9
$SHADEDIF
 70
   70
  9
$TILEMODE
 70
    1
  9
$MAXACTVP
 70
   64
  9
$PINSBASE
 10
0
 20
0
 30
0
  9
$PLIMCHECK
 70
    0
  9
$PEXTMIN
 10
-0.5
 20
-0.5
 30
-0.5
  9
$PEXTMAX
 10
5
 20
5
 30
5
  9
$GRIDMODE
 70
    0
  9
$SNAPSTYLE
 70
    0
  9
$PLIMMIN
 10
-0.5
 20
-0.5
  9
$PLIMMAX
 10
5
 20
5
  9
$UNITMODE
 70
    0
  9
$VISRETAIN
 70
    1
  9
$PLINEGEN
 70
    0
  9
$PSLTSCALE
 70
    1
  9
$TREEDEPTH
 70
 3020
  9
$CMLSTYLE
  2
Standard
  9
$CMLJUST
 70
    0
  9
$CMLSCALE
 40
1
  9
$PROXYGRAPHICS
 70
    1
  9
$MEASUREMENT
 70
    1
  9
$CELWEIGHT
370
   70
  9
$ENDCAPS
280
    0
  9
$JOINSTYLE
280
    0
  9
$LWDISPLAY
290
    1
  9
$INSUNITS
 70
    4
  9
$HYPERLINKBASE
  1

  9
$STYLESHEET
  1

  9
$XEDIT
290
    1
  9
$CEPSNTYPE
380
    0
  9
$PSTYLEMODE
290
    1
  9
$EXTNAMES
290
    1
  9
$PSVPSCALE
 40
0
  9
$OLESTARTUP
290
    0
  9
$SORTENTS
280
  127
  9
$INDEXCTL
280
    0
  9
$HIDETEXT
280
    1
  9
$XCLIPFRAME
290
    0
  9
$HALOGAP
280
    0
  9
$OBSCOLOR
 70
  257
  9
$OBSLTYPE
280
    0
  9
$INTERSECTIONDISPLAY
280
    0
  9
$INTERSECTIONCOLOR
 70
  257
  9
$DIMASSOC
280
    2
  9
$PROJECTNAME
  1

  9
$CAMERADISPLAY
290
    0
  9
$LENSLENGTH
 40
50
  9
$CAMERAHEIGHT
 40
0
  9
$STEPSPERSEC
 40
2
  9
$STEPSIZE
 40
6
  9
$3DDWFPREC
 40
2
  9
$PSOLWIDTH
 40
0.25
  9
$PSOLHEIGHT
 40
4
  9
$LOFTANG1
 40
1.570796
  9
$LOFTANG2
 40
1.570796
  9
$LOFTMAG1
 40
0
  9
$LOFTMAG2
 40
0
  9
$LOFTPARAM
 70
    7
  9
$LOFTNORMALS
280
    1
  9
$LATITUDE
 40
37.795
  9
$LONGITUDE
 40
-122.394
  9
$NORTHDIRECTION
 40
0
  9
$TIMEZONE
 70
-8000
  9
$LIGHTGLYPHDISPLAY
280
    1
  9
$TILEMODELIGHTSYNCH
280
    1
  9
$SOLIDHIST
280
    0
  9
$SHOWHIST
280
    1
  9
$DWFFRAME
280
    2
  9
$DGNFRAME
280
    2
  9
$REALWORLDSCALE
290
    1
  9
$INTERFERECOLOR
 62
  256
  9
$CSHADOW
280
    0
  9
$SHADOWPLANELOCATION
 40
0
  0
ENDSEC
  0
SECTION
  2
CLASSES
  0
ENDSEC
  0
SECTION
  2
TABLES
  0
TABLE
  2
VPORT
  5
8
330
0
100
AcDbSymbolTable
 70
    1
  0
VPORT
  5
31
330
2
100
AcDbSymbolTableRecord
100
AcDbViewportTableRecord
  2
*ACTIVE
 70
    0
 10
0
 20
0
 11
1
 21
1
 12
112.1267890465974
 22
109.3695729225007
 13
0
 23
0
 14
10
 24
10
 15
10
 25
10
 16
0
 26
0
 36
1
 17
0
 27
0
 37
0
 40
343.7329434707165
 41
0.8850267379679144
 42
50
 43
0
 44
0
 50
0
 51
0
 71
    0
 72
  100
 73
    1
 74
    3
 75
    0
 76
    0
 77
    0
 78
    0
281
    0
 65
    1
110
0
120
0
130
0
111
1
121
0
131
0
112
0
122
1
132
0
 79
    0
146
0
348
10020
 60
    7
 61
    5
292
1
282
    1
141
0
142
0
 63
  250
421
3358443
  0
ENDTAB
  0
TABLE
  2
LTYPE
  5
5
330
0
100
AcDbSymbolTable
 70
    4
  0
LTYPE
  5
14
330
5
100
AcDbSymbolTableRecord
100
AcDbLinetypeTableRecord
  2
ByBlock
 70
    0
  3

 72
   65
 73
    0
 40
0
  0
LTYPE
  5
15
330
5
100
AcDbSymbolTableRecord
100
AcDbLinetypeTableRecord
  2
ByLayer
 70
    0
  3

 72
   65
 73
    0
 40
0
  0
LTYPE
  5
16
330
5
100
AcDbSymbolTableRecord
100
AcDbLinetypeTableRecord
  2
Continuous
 70
    0
  3
Solid line
 72
   65
 73
    0
 40
0
  0
LTYPE
  5
32
330
5
100
AcDbSymbolTableRecord
100
AcDbLinetypeTableRecord
  2
DOT
 70
    0
  3
Dot . . . . . . . . . . . . . . . . . . . . . .
 72
   65
 73
    2
 40
6.35
 49
0
 74
    0
 49
-6.35
 74
    0
  0
LTYPE
  5
33
330
5
100
AcDbSymbolTableRecord
100
AcDbLinetypeTableRecord
  2
DOTTINY
 70
    0
  3
Dot (.15x) .....................................
 72
   65
 73
    2
 40
0.9525
 49
0
 74
    0
 49
-0.9525
 74
    0
  0
LTYPE
  5
34
330
5
100
AcDbSymbolTableRecord
100
AcDbLinetypeTableRecord
  2
DOT2
 70
    0
  3
Dot (.5x) .....................................
 72
   65
 73
    2
 40
3.175
 49
0
 74
    0
 49
-3.175
 74
    0
  0
LTYPE
  5
35
330
5
100
AcDbSymbolTableRecord
100
AcDbLinetypeTableRecord
  2
DOTX2
 70
    0
  3
Dot (2x) .  .  .  .  .  .  .  .  .  .  .  .  .
 72
   65
 73
    2
 40
12.7
 49
0
 74
    0
 49
-12.7
 74
    0
  0
LTYPE
  5
36
330
5
100
AcDbSymbolTableRecord
100
AcDbLinetypeTableRecord
  2
DASHED
 70
    0
  3
Dashed _ _ _ _ _ _ _ _ _ _ _ _ _ _ _ _ _
 72
   65
 73
    2
 40
19.05
 49
12.7
 74
    0
 49
-6.35
 74
    0
  0
LTYPE
  5
37
330
5
100
AcDbSymbolTableRecord
100
AcDbLinetypeTableRecord
  2
DASHEDTINY
 70
    0
  3
Dashed (.15x) _ _ _ _ _ _ _ _ _ _ _ _ _ _ _ _ _
 72
   65
 73
    2
 40
2.8575
 49
1.905
 74
    0
 49
-0.9525
 74
    0
  0
LTYPE
  5
38
330
5
100
AcDbSymbolTableRecord
100
AcDbLinetypeTableRecord
  2
DASHED2
 70
    0
  3
Dashed (.5x) _ _ _ _ _ _ _ _ _ _ _ _ _ _ _ _ _
 72
   65
 73
    2
 40
9.524999999999999
 49
6.35
 74
    0
 49
-3.175
 74
    0
  0
LTYPE
  5
39
330
5
100
AcDbSymbolTableRecord
100
AcDbLinetypeTableRecord
  2
DASHEDX2
 70
    0
  3
Dashed (2x) ____  ____  ____  ____  ____  ___
 72
   65
 73
    2
 40
38.09999999999999
 49
25.4
 74
    0
 49
-12.7
 74
    0
  0
LTYPE
  5
3A
330
5
100
AcDbSymbolTableRecord
100
AcDbLinetypeTableRecord
  2
DASHDOT
 70
    0
  3
Dash dot __ . __ . __ . __ . __ . __ . __ . __
 72
   65
 73
    4
 40
25.4
 49
12.7
 74
    0
 49
-6.35
 74
    0
 49
0
 74
    0
 49
-6.35
 74
    0
  0
LTYPE
  5
3B
330
5
100
AcDbSymbolTableRecord
100
AcDbLinetypeTableRecord
  2
DASHDOTTINY
 70
    0
  3
Dash dot (.15x) _._._._._._._._._._._._._._._.
 72
   65
 73
    4
 40
3.81
 49
1.905
 74
    0
 49
-0.9525
 74
    0
 49
0
 74
    0
 49
-0.9525
 74
    0
  0
LTYPE
  5
3C
330
5
100
AcDbSymbolTableRecord
100
AcDbLinetypeTableRecord
  2
DASHDOT2
 70
    0
  3
Dash dot (.5x) _._._._._._._._._._._._._._._.
 72
   65
 73
    4
 40
12.7
 49
6.35
 74
    0
 49
-3.175
 74
    0
 49
0
 74
    0
 49
-3.175
 74
    0
  0
LTYPE
  5
3D
330
5
100
AcDbSymbolTableRecord
100
AcDbLinetypeTableRecord
  2
DASHDOTX2
 70
    0
  3
Dash dot (2x) ____  .  ____  .  ____  .  ___
 72
   65
 73
    4
 40
50.8
 49
25.4
 74
    0
 49
-12.7
 74
    0
 49
0
 74
    0
 49
-12.7
 74
    0
  0
LTYPE
  5
3E
330
5
100
AcDbSymbolTableRecord
100
AcDbLinetypeTableRecord
  2
DIVIDE
 70
    0
  3
Divide ____ . . ____ . . ____ . . ____ . . ____
 72
   65
 73
    6
 40
31.75
 49
12.7
 74
    0
 49
-6.35
 74
    0
 49
0
 74
    0
 49
-6.35
 74
    0
 49
0
 74
    0
 49
-6.35
 74
    0
  0
LTYPE
  5
3F
330
5
100
AcDbSymbolTableRecord
100
AcDbLinetypeTableRecord
  2
DIVIDETINY
 70
    0
  3
Divide (.15x) __..__..__..__..__..__..__..__.._
 72
   65
 73
    6
 40
4.7625
 49
1.905
 74
    0
 49
-0.9525
 74
    0
 49
0
 74
    0
 49
-0.9525
 74
    0
 49
0
 74
    0
 49
-0.9525
 74
    0
  0
LTYPE
  5
40
330
5
100
AcDbSymbolTableRecord
100
AcDbLinetypeTableRecord
  2
DIVIDE2
 70
    0
  3
Divide (.5x) __..__..__..__..__..__..__..__.._
 72
   65
 73
    6
 40
15.875
 49
6.35
 74
    0
 49
-3.175
 74
    0
 49
0
 74
    0
 49
-3.175
 74
    0
 49
0
 74
    0
 49
-3.175
 74
    0
  0
LTYPE
  5
41
330
5
100
AcDbSymbolTableRecord
100
AcDbLinetypeTableRecord
  2
DIVIDEX2
 70
    0
  3
Divide (2x) ________  .  .  ________  .  .  _
 72
   65
 73
    6
 40
63.5
 49
25.4
 74
    0
 49
-12.7
 74
    0
 49
0
 74
    0
 49
-12.7
 74
    0
 49
0
 74
    0
 49
-12.7
 74
    0
  0
LTYPE
  5
42
330
5
100
AcDbSymbolTableRecord
100
AcDbLinetypeTableRecord
  2
BORDER
 70
    0
  3
Border __ __ . __ __ . __ __ . __ __ . __ __ .
 72
   65
 73
    6
 40
44.45
 49
12.7
 74
    0
 49
-6.35
 74
    0
 49
12.7
 74
    0
 49
-6.35
 74
    0
 49
0
 74
    0
 49
-6.35
 74
    0
  0
LTYPE
  5
43
330
5
100
AcDbSymbolTableRecord
100
AcDbLinetypeTableRecord
  2
BORDERTINY
 70
    0
  3
Border (.15x) __.__.__.__.__.__.__.__.__.__.__.
 72
   65
 73
    6
 40
6.6675
 49
1.905
 74
    0
 49
-0.9525
 74
    0
 49
1.905
 74
    0
 49
-0.9525
 74
    0
 49
0
 74
    0
 49
-0.9525
 74
    0
  0
LTYPE
  5
44
330
5
100
AcDbSymbolTableRecord
100
AcDbLinetypeTableRecord
  2
BORDER2
 70
    0
  3
Border (.5x) __.__.__.__.__.__.__.__.__.__.__.
 72
   65
 73
    6
 40
22.225
 49
6.35
 74
    0
 49
-3.175
 74
    0
 49
6.35
 74
    0
 49
-3.175
 74
    0
 49
0
 74
    0
 49
-3.175
 74
    0
  0
LTYPE
  5
45
330
5
100
AcDbSymbolTableRecord
100
AcDbLinetypeTableRecord
  2
BORDERX2
 70
    0
  3
Border (2x) ____  ____  .  ____  ____  .  ___
 72
   65
 73
    6
 40
88.89999999999999
 49
25.4
 74
    0
 49
-12.7
 74
    0
 49
25.4
 74
    0
 49
-12.7
 74
    0
 49
0
 74
    0
 49
-12.7
 74
    0
  0
LTYPE
  5
46
330
5
100
AcDbSymbolTableRecord
100
AcDbLinetypeTableRecord
  2
CENTER
 70
    0
  3
Center ____ _ ____ _ ____ _ ____ _ ____ _ ____
 72
   65
 73
    4
 40
50.8
 49
31.75
 74
    0
 49
-6.35
 74
    0
 49
6.35
 74
    0
 49
-6.35
 74
    0
  0
LTYPE
  5
47
330
5
100
AcDbSymbolTableRecord
100
AcDbLinetypeTableRecord
  2
CENTERTINY
 70
    0
  3
Center (.15x) ___ _ ___ _ ___ _ ___ _ ___ _ ___
 72
   65
 73
    4
 40
7.619999999999999
 49
4.7625
 74
    0
 49
-0.9525
 74
    0
 49
0.9525
 74
    0
 49
-0.9525
 74
    0
  0
LTYPE
  5
48
330
5
100
AcDbSymbolTableRecord
100
AcDbLinetypeTableRecord
  2
CENTER2
 70
    0
  3
Center (.5x) ___ _ ___ _ ___ _ ___ _ ___ _ ___
 72
   65
 73
    4
 40
28.575
 49
19.05
 74
    0
 49
-3.175
 74
    0
 49
3.175
 74
    0
 49
-3.175
 74
    0
  0
LTYPE
  5
49
330
5
100
AcDbSymbolTableRecord
100
AcDbLinetypeTableRecord
  2
CENTERX2
 70
    0
  3
Center (2x) ________  __  ________  __  _____
 72
   65
 73
    4
 40
101.6
 49
63.5
 74
    0
 49
-12.7
 74
    0
 49
12.7
 74
    0
 49
-12.7
 74
    0
  0
ENDTAB
  0
TABLE
  2
LAYER
  5
2
330
0
100
AcDbSymbolTable
 70
    1
  0
LAYER
  5
10
330
2
100
AcDbSymbolTableRecord
100
AcDbLayerTableRecord
  2
0
 70
    0
 62
    7
  6
CONTINUOUS
370
   -3
390
F
  0
LAYER
  5
4A
330
2
100
AcDbSymbolTableRecord
100
AcDbLayerTableRecord
  2
1
 70
    0
 62
  255
  6
CONTINUOUS
370
   -3
390
F
  0
LAYER
  5
4B
330
2
100
AcDbSymbolTableRecord
100
AcDbLayerTableRecord
  2
61
 70
    0
 62
  255
  6
CONTINUOUS
370
   -3
390
F
  0
ENDTAB
  0
TABLE
  2
STYLE
  5
3
330
0
100
AcDbSymbolTable
 70
    3
  0
STYLE
  5
4C
330
2
100
AcDbSymbolTableRecord
100
AcDbTextStyleTableRecord
  2
Standard
 70
    0
 40
0
 41
1
 50
0
 71
    0
 42
1
  3
txt
  4

  0
ENDTAB
  0
TABLE
  2
VIEW
  5
6
330
0
100
AcDbSymbolTable
 70
    0
  0
ENDTAB
  0
TABLE
  2
UCS
  5
7
330
0
100
AcDbSymbolTable
 70
    0
  0
ENDTAB
  0
TABLE
  2
APPID
  5
9
330
0
100
AcDbSymbolTable
 70
    1
  0
APPID
  5
12
330
9
100
AcDbSymbolTableRecord
100
AcDbRegAppTableRecord
  2
ACAD
 70
    0
  0
APPID
  5
4D
330
9
100
AcDbSymbolTableRecord
100
AcDbRegAppTableRecord
  2
LibreCad
 70
    0
  0
ENDTAB
  0
TABLE
  2
DIMSTYLE
  5
A
330
0
100
AcDbSymbolTable
 70
    1
100
AcDbDimStyleTable
 71
    1
  0
DIMSTYLE
105
4E
330
A
100
AcDbSymbolTableRecord
100
AcDbDimStyleTableRecord
  2
Standard
 70
    0
 40
1
 41
0.18
 42
0.0625
 43
0.38
 44
0.18
 45
0
 46
0
 47
0
 48
0
 49
1
140
0.18
141
0.09
142
0
143
25.4
144
1
145
0
146
1
147
0.09
148
0
 71
    0
 72
    0
 73
    1
 74
    1
 75
    0
 76
    0
 77
    0
 78
    0
 79
    0
170
    0
171
    2
172
    0
173
    0
174
    0
175
    0
176
    0
177
    0
178
    0
179
    0
271
    4
272
    4
273
    2
274
    2
275
    0
276
    0
277
    2
278
   46
279
    0
280
    0
281
    0
282
    0
283
    1
284
    0
285
    0
286
    0
288
    0
289
    3
340
Standard
341

371
   -2
372
   -2
  0
ENDTAB
  0
TABLE
  2
BLOCK_RECORD
  5
1
330
0
100
AcDbSymbolTable
 70
    2
  0
BLOCK_RECORD
  5
1F
330
1
100
AcDbSymbolTableRecord
100
AcDbBlockTableRecord
  2
*Model_Space
 70
    0
280
    1
281
    0
  0
BLOCK_RECORD
  5
1E
330
1
100
AcDbSymbolTableRecord
100
AcDbBlockTableRecord
  2
*Paper_Space
 70
    0
280
    1
281
    0
  0
ENDTAB
  0
ENDSEC
  0
SECTION
  2
BLOCKS
  0
BLOCK
  5
20
330
1F
100
AcDbEntity
  8
0
100
AcDbBlockBegin
  2
*Model_Space
 70
    0
 10
0
 20
0
 30
0
  3
*Model_Space
  1

  0
ENDBLK
  5
21
330
1F
100
AcDbEntity
  8
0
100
AcDbBlockEnd
  0
BLOCK
  5
1C
330
1B
100
AcDbEntity
  8
0
100
AcDbBlockBegin
  2
*Paper_Space
 70
    0
 10
0
 20
0
 30
0
  3
*Paper_Space
  1

  0
ENDBLK
  5
1D
330
1F
100
AcDbEntity
  8
0
100
AcDbBlockEnd
  0
ENDSEC
  0
SECTION
  2
ENTITIES
  0
POINT
  5
4F
100
AcDbEntity
  8
61
  6
CONTINUOUS
 62
    1
370
    5
100
AcDbPoint
 10
0
 20
0
  0
LINE
  5
50
100
AcDbEntity
  8
1
  6
CONTINUOUS
 62
    1
370
    5
100
AcDbLine
 10
110.98877
 20
172.773024
 11
113.23877
 21
174.072062
  0
LINE
  5
51
100
AcDbEntity
  8
1
  6
CONTINUOUS
 62
    1
370
    5
100
AcDbLine
 10
108.73877
 20
174.072062
 11
110.98877
 21
172.773024
  0
LINE
  5
52
100
AcDbEntity
  8
1
  6
CONTINUOUS
 62
    1
370
    5
100
AcDbLine
 10
110.98877
 20
177.969176
 11
108.73877
 21
176.670138
  0
LINE
  5
53
100
AcDbEntity
  8
1
  6
CONTINUOUS
 62
    1
370
    5
100
AcDbLine
 10
113.23877
 20
176.670138
 11
110.98877
 21
177.969176
  0
LINE
  5
54
100
AcDbEntity
  8
1
  6
CONTINUOUS
 62
    1
370
    5
100
AcDbLine
 10
197.747774
 20
37.004172
 11
199.997774
 21
38.303211
  0
LINE
  5
55
100
AcDbEntity
  8
1
  6
CONTINUOUS
 62
    1
370
    5
100
AcDbLine
 10
195.497774
 20
38.303211
 11
197.747774
 21
37.004172
  0
LINE
  5
56
100
AcDbEntity
  8
1
  6
CONTINUOUS
 62
    1
370
    5
100
AcDbLine
 10
197.747774
 20
42.200325
 11
195.497774
 21
40.901287
  0
LINE
  5
57
100
AcDbEntity
  8
1
  6
CONTINUOUS
 62
    1
370
    5
100
AcDbLine
 10
108.73877
 20
176.670138
 11
108.73877
 21
174.072062
  0
LINE
  5
58
100
AcDbEntity
  8
1
  6
CONTINUOUS
 62
    1
370
    5
100
AcDbLine
 10
199.997774
 20
38.303211
 11
199.997774
 21
40.901287
  0
LINE
  5
59
100
AcDbEntity
  8
1
  6
CONTINUOUS
 62
    1
370
    5
100
AcDbLine
 10
195.497774
 20
40.901287
 11
195.497774
 21
38.303211
  0
LINE
  5
5A
100
AcDbEntity
  8
1
  6
CONTINUOUS
 62
    1
370
    5
100
AcDbLine
 10
113.23877
 20
174.072062
 11
113.23877
 21
176.670138
  0
LINE
  5
5B
100
AcDbEntity
  8
1
  6
CONTINUOUS
 62
    1
370
    5
100
AcDbLine
 10
109.988
 20
139.811
 11
109.988
 21
133.861
  0
LINE
  5
5C
100
AcDbEntity
  8
1
  6
CONTINUOUS
 62
    1
370
    5
100
AcDbLine
 10
129.038
 20
131.385
 11
128.239
 21
131.385
  0
LINE
  5
5D
100
AcDbEntity
  8
1
  6
CONTINUOUS
 62
    1
370
    5
100
AcDbLine
 10
104.789
 20
128.434
 11
105.588
 21
128.434
  0
LINE
  5
5E
100
AcDbEntity
  8
1
  6
CONTINUOUS
 62
    1
370
    5
100
AcDbLine
 10
104.789
 20
127.435
 11
104.789
 21
128.434
  0
LINE
  5
5F
100
AcDbEntity
  8
1
  6
CONTINUOUS
 62
    1
370
    5
100
AcDbLine
 10
104.789
 20
141.285
 11
90.938
 21
141.285
  0
LINE
  5
60
100
AcDbEntity
  8
1
  6
CONTINUOUS
 62
    1
370
    5
100
AcDbLine
 10
148.088
 20
97.4217
 11
147.289
 21
97.4217
  0
LINE
  5
61
100
AcDbEntity
  8
1
  6
CONTINUOUS
 62
    1
370
    5
100
AcDbLine
 10
128.239
 20
109.384
 11
129.038
 21
109.384
  0
LINE
  5
62
100
AcDbEntity
  8
1
  6
CONTINUOUS
 62
    1
370
    5
100
AcDbLine
 10
65.26390000000001
 20
67.2634
 11
65.9571
 21
67.6645
  0
LINE
  5
63
100
AcDbEntity
  8
1
  6
CONTINUOUS
 62
    1
370
    5
100
AcDbLine
 10
90.938
 20
93.285
 11
90.139
 21
93.285
  0
LINE
  5
64
100
AcDbEntity
  8
1
  6
CONTINUOUS
 62
    1
370
    5
100
AcDbLine
 10
59.115
 20
37.8135
 11
59.9817
 21
38.3134
  0
LINE
  5
65
100
AcDbEntity
  8
1
  6
CONTINUOUS
 62
    1
370
    5
100
AcDbLine
 10
49.2538
 20
31.1947
 11
51.8072
 21
32.6705
  0
LINE
  5
66
100
AcDbEntity
  8
1
  6
CONTINUOUS
 62
    1
370
    5
100
AcDbLine
 10
18.0606
 20
53.0229
 11
15.5057
 21
51.5482
  0
LINE
  5
67
100
AcDbEntity
  8
1
  6
CONTINUOUS
 62
    1
370
    5
100
AcDbLine
 10
33.959
 20
45.2864
 11
27.033
 21
57.2795
  0
LINE
  5
68
100
AcDbEntity
  8
1
  6
CONTINUOUS
 62
    1
370
    5
100
AcDbLine
 10
142.889
 20
102.186
 11
142.889
 21
103.185
  0
LINE
  5
69
100
AcDbEntity
  8
1
  6
CONTINUOUS
 62
    1
370
    5
100
AcDbLine
 10
166.339
 20
59.3217
 11
166.339
 21
56.3714
  0
LINE
  5
6A
100
AcDbEntity
  8
1
  6
CONTINUOUS
 62
    1
370
    5
100
AcDbLine
 10
45.8653
 20
24.6641
 11
38.9407
 21
36.6586
  0
LINE
  5
6B
100
AcDbEntity
  8
1
  6
CONTINUOUS
 62
    1
370
    5
100
AcDbLine
 10
147.289
 20
85.5719
 11
148.088
 21
85.5719
  0
LINE
  5
6C
100
AcDbEntity
  8
1
  6
CONTINUOUS
 62
    1
370
    5
100
AcDbLine
 10
147.289
 20
88.52249999999999
 11
147.289
 21
85.5719
  0
LINE
  5
6D
100
AcDbEntity
  8
1
  6
CONTINUOUS
 62
    1
370
    5
100
AcDbLine
 10
33.8708
 20
17.7395
 11
34.7362
 21
18.2397
  0
LINE
  5
6E
100
AcDbEntity
  8
1
  6
CONTINUOUS
 62
    1
370
    5
100
AcDbLine
 10
71.88800000000001
 20
96.949
 11
71.88800000000001
 21
90.9987
  0
LINE
  5
6F
100
AcDbEntity
  8
1
  6
CONTINUOUS
 62
    1
370
    5
100
AcDbLine
 10
147.289
 20
116.472
 11
147.289
 21
113.521
  0
LINE
  5
70
100
AcDbEntity
  8
1
  6
CONTINUOUS
 62
    1
370
    5
100
AcDbLine
 10
43.5335
 20
68.40179999999999
 11
42.8417
 21
68.0021
  0
LINE
  5
71
100
AcDbEntity
  8
1
  6
CONTINUOUS
 62
    1
370
    5
100
AcDbLine
 10
147.289
 20
113.521
 11
148.088
 21
113.521
  0
LINE
  5
72
100
AcDbEntity
  8
1
  6
CONTINUOUS
 62
    1
370
    5
100
AcDbLine
 10
148.088
 20
47.4719
 11
148.088
 21
46.4714
  0
LINE
  5
73
100
AcDbEntity
  8
1
  6
CONTINUOUS
 62
    1
370
    5
100
AcDbLine
 10
49.4591
 20
58.1395
 11
47.9834
 21
60.6944
  0
LINE
  5
74
100
AcDbEntity
  8
1
  6
CONTINUOUS
 62
    1
370
    5
100
AcDbLine
 10
34.6039
 20
52.9689
 11
36.0786
 21
50.4141
  0
LINE
  5
75
100
AcDbEntity
  8
1
  6
CONTINUOUS
 62
    1
370
    5
100
AcDbLine
 10
148.088
 20
79.37220000000001
 11
148.088
 21
78.3717
  0
LINE
  5
76
100
AcDbEntity
  8
1
  6
CONTINUOUS
 62
    1
370
    5
100
AcDbLine
 10
147.289
 20
104.622
 11
148.088
 21
104.622
  0
LINE
  5
77
100
AcDbEntity
  8
1
  6
CONTINUOUS
 62
    1
370
    5
100
AcDbLine
 10
109.189
 20
111.861
 11
109.988
 21
111.861
  0
LINE
  5
78
100
AcDbEntity
  8
1
  6
CONTINUOUS
 62
    1
370
    5
100
AcDbLine
 10
185.75
 20
113.521
 11
186.551
 21
113.521
  0
LINE
  5
79
100
AcDbEntity
  8
1
  6
CONTINUOUS
 62
    1
370
    5
100
AcDbLine
 10
167.138
 20
65.5214
 11
180.989
 21
65.5214
  0
LINE
  5
7A
100
AcDbEntity
  8
1
  6
CONTINUOUS
 62
    1
370
    5
100
AcDbLine
 10
167.138
 20
66.5219
 11
167.138
 21
65.5214
  0
LINE
  5
7B
100
AcDbEntity
  8
1
  6
CONTINUOUS
 62
    1
370
    5
100
AcDbLine
 10
161.939
 20
136.522
 11
148.088
 21
136.522
  0
LINE
  5
7C
100
AcDbEntity
  8
1
  6
CONTINUOUS
 62
    1
370
    5
100
AcDbLine
 10
167.138
 20
126.623
 11
166.339
 21
126.623
  0
LINE
  5
7D
100
AcDbEntity
  8
1
  6
CONTINUOUS
 62
    1
370
    5
100
AcDbLine
 10
109.189
 20
120.761
 11
109.988
 21
120.761
  0
LINE
  5
7E
100
AcDbEntity
  8
1
  6
CONTINUOUS
 62
    1
370
    5
100
AcDbLine
 10
105.588
 20
112.335
 11
104.789
 21
112.335
  0
LINE
  5
7F
100
AcDbEntity
  8
1
  6
CONTINUOUS
 62
    1
370
    5
100
AcDbLine
 10
142.889
 20
121.236
 11
142.889
 21
122.235
  0
LINE
  5
80
100
AcDbEntity
  8
1
  6
CONTINUOUS
 62
    1
370
    5
100
AcDbLine
 10
42.8417
 20
68.0021
 11
42.3414
 21
68.86750000000001
  0
LINE
  5
81
100
AcDbEntity
  8
1
  6
CONTINUOUS
 62
    1
370
    5
100
AcDbLine
 10
167.138
 20
135.522
 11
166.339
 21
135.522
  0
LINE
  5
82
100
AcDbEntity
  8
1
  6
CONTINUOUS
 62
    1
370
    5
100
AcDbLine
 10
167.138
 20
136.522
 11
167.138
 21
135.522
  0
LINE
  5
83
100
AcDbEntity
  8
1
  6
CONTINUOUS
 62
    1
370
    5
100
AcDbLine
 10
162.738
 20
123.672
 11
162.738
 21
126.623
  0
LINE
  5
84
100
AcDbEntity
  8
1
  6
CONTINUOUS
 62
    1
370
    5
100
AcDbLine
 10
161.939
 20
123.672
 11
162.738
 21
123.672
  0
LINE
  5
85
100
AcDbEntity
  8
1
  6
CONTINUOUS
 62
    1
370
    5
100
AcDbLine
 10
180.989
 20
135.522
 11
180.989
 21
136.522
  0
LINE
  5
86
100
AcDbEntity
  8
1
  6
CONTINUOUS
 62
    1
370
    5
100
AcDbLine
 10
181.788
 20
135.522
 11
180.989
 21
135.522
  0
LINE
  5
87
100
AcDbEntity
  8
1
  6
CONTINUOUS
 62
    1
370
    5
100
AcDbLine
 10
181.788
 20
126.623
 11
180.989
 21
126.623
  0
LINE
  5
88
100
AcDbEntity
  8
1
  6
CONTINUOUS
 62
    1
370
    5
100
AcDbLine
 10
181.788
 20
123.672
 11
181.788
 21
126.623
  0
LINE
  5
89
100
AcDbEntity
  8
1
  6
CONTINUOUS
 62
    1
370
    5
100
AcDbLine
 10
180.989
 20
123.672
 11
181.788
 21
123.672
  0
LINE
  5
8A
100
AcDbEntity
  8
1
  6
CONTINUOUS
 62
    1
370
    5
100
AcDbLine
 10
180.989
 20
122.671
 11
180.989
 21
123.672
  0
LINE
  5
8B
100
AcDbEntity
  8
1
  6
CONTINUOUS
 62
    1
370
    5
100
AcDbLine
 10
180.989
 20
136.522
 11
167.138
 21
136.522
  0
LINE
  5
8C
100
AcDbEntity
  8
1
  6
CONTINUOUS
 62
    1
370
    5
100
AcDbLine
 10
161.939
 20
132.571
 11
162.738
 21
132.571
  0
LINE
  5
8D
100
AcDbEntity
  8
1
  6
CONTINUOUS
 62
    1
370
    5
100
AcDbLine
 10
161.939
 20
126.623
 11
161.939
 21
132.571
  0
LINE
  5
8E
100
AcDbEntity
  8
1
  6
CONTINUOUS
 62
    1
370
    5
100
AcDbLine
 10
162.738
 20
126.623
 11
161.939
 21
126.623
  0
LINE
  5
8F
100
AcDbEntity
  8
1
  6
CONTINUOUS
 62
    1
370
    5
100
AcDbLine
 10
166.339
 20
126.623
 11
166.339
 21
123.672
  0
LINE
  5
90
100
AcDbEntity
  8
1
  6
CONTINUOUS
 62
    1
370
    5
100
AcDbLine
 10
86.5382
 20
129.099
 11
85.7388
 21
129.099
  0
LINE
  5
91
100
AcDbEntity
  8
1
  6
CONTINUOUS
 62
    1
370
    5
100
AcDbLine
 10
85.7388
 20
135.049
 11
86.5382
 21
135.049
  0
LINE
  5
92
100
AcDbEntity
  8
1
  6
CONTINUOUS
 62
    1
370
    5
100
AcDbLine
 10
85.7388
 20
129.099
 11
85.7388
 21
135.049
  0
LINE
  5
93
100
AcDbEntity
  8
1
  6
CONTINUOUS
 62
    1
370
    5
100
AcDbLine
 10
86.5382
 20
126.15
 11
86.5382
 21
129.099
  0
LINE
  5
94
100
AcDbEntity
  8
1
  6
CONTINUOUS
 62
    1
370
    5
100
AcDbLine
 10
147.289
 20
69.4725
 11
147.289
 21
66.5219
  0
LINE
  5
95
100
AcDbEntity
  8
1
  6
CONTINUOUS
 62
    1
370
    5
100
AcDbLine
 10
86.5382
 20
135.049
 11
86.5382
 21
138
  0
LINE
  5
96
100
AcDbEntity
  8
1
  6
CONTINUOUS
 62
    1
370
    5
100
AcDbLine
 10
71.089
 20
135.049
 11
71.88800000000001
 21
135.049
  0
LINE
  5
97
100
AcDbEntity
  8
1
  6
CONTINUOUS
 62
    1
370
    5
100
AcDbLine
 10
71.089
 20
138
 11
71.089
 21
135.049
  0
LINE
  5
98
100
AcDbEntity
  8
1
  6
CONTINUOUS
 62
    1
370
    5
100
AcDbLine
 10
71.88800000000001
 20
138
 11
71.089
 21
138
  0
LINE
  5
99
100
AcDbEntity
  8
1
  6
CONTINUOUS
 62
    1
370
    5
100
AcDbLine
 10
71.88800000000001
 20
138.999
 11
71.88800000000001
 21
138
  0
LINE
  5
9A
100
AcDbEntity
  8
1
  6
CONTINUOUS
 62
    1
370
    5
100
AcDbLine
 10
147.289
 20
123.672
 11
148.088
 21
123.672
  0
LINE
  5
9B
100
AcDbEntity
  8
1
  6
CONTINUOUS
 62
    1
370
    5
100
AcDbLine
 10
147.289
 20
126.623
 11
147.289
 21
123.672
  0
LINE
  5
9C
100
AcDbEntity
  8
1
  6
CONTINUOUS
 62
    1
370
    5
100
AcDbLine
 10
148.088
 20
126.623
 11
147.289
 21
126.623
  0
LINE
  5
9D
100
AcDbEntity
  8
1
  6
CONTINUOUS
 62
    1
370
    5
100
AcDbLine
 10
148.088
 20
132.571
 11
148.088
 21
126.623
  0
LINE
  5
9E
100
AcDbEntity
  8
1
  6
CONTINUOUS
 62
    1
370
    5
100
AcDbLine
 10
85.7388
 20
126.15
 11
86.5382
 21
126.15
  0
LINE
  5
9F
100
AcDbEntity
  8
1
  6
CONTINUOUS
 62
    1
370
    5
100
AcDbLine
 10
85.7388
 20
125.149
 11
85.7388
 21
126.15
  0
LINE
  5
A0
100
AcDbEntity
  8
1
  6
CONTINUOUS
 62
    1
370
    5
100
AcDbLine
 10
71.88800000000001
 20
125.149
 11
85.7388
 21
125.149
  0
LINE
  5
A1
100
AcDbEntity
  8
1
  6
CONTINUOUS
 62
    1
370
    5
100
AcDbLine
 10
167.138
 20
122.671
 11
180.989
 21
122.671
  0
LINE
  5
A2
100
AcDbEntity
  8
1
  6
CONTINUOUS
 62
    1
370
    5
100
AcDbLine
 10
167.138
 20
123.672
 11
167.138
 21
122.671
  0
LINE
  5
A3
100
AcDbEntity
  8
1
  6
CONTINUOUS
 62
    1
370
    5
100
AcDbLine
 10
166.339
 20
123.672
 11
167.138
 21
123.672
  0
LINE
  5
A4
100
AcDbEntity
  8
1
  6
CONTINUOUS
 62
    1
370
    5
100
AcDbLine
 10
90.938
 20
141.285
 11
90.938
 21
140.286
  0
LINE
  5
A5
100
AcDbEntity
  8
1
  6
CONTINUOUS
 62
    1
370
    5
100
AcDbLine
 10
71.88800000000001
 20
129.099
 11
71.089
 21
129.099
  0
LINE
  5
A6
100
AcDbEntity
  8
1
  6
CONTINUOUS
 62
    1
370
    5
100
AcDbLine
 10
71.88800000000001
 20
135.049
 11
71.88800000000001
 21
129.099
  0
LINE
  5
A7
100
AcDbEntity
  8
1
  6
CONTINUOUS
 62
    1
370
    5
100
AcDbLine
 10
181.788
 20
132.571
 11
181.788
 21
135.522
  0
LINE
  5
A8
100
AcDbEntity
  8
1
  6
CONTINUOUS
 62
    1
370
    5
100
AcDbLine
 10
180.989
 20
132.571
 11
181.788
 21
132.571
  0
LINE
  5
A9
100
AcDbEntity
  8
1
  6
CONTINUOUS
 62
    1
370
    5
100
AcDbLine
 10
180.989
 20
126.623
 11
180.989
 21
132.571
  0
LINE
  5
AA
100
AcDbEntity
  8
1
  6
CONTINUOUS
 62
    1
370
    5
100
AcDbLine
 10
171.1
 20
116.472
 11
171.1
 21
113.521
  0
LINE
  5
AB
100
AcDbEntity
  8
1
  6
CONTINUOUS
 62
    1
370
    5
100
AcDbLine
 10
85.7388
 20
138.999
 11
71.88800000000001
 21
138.999
  0
LINE
  5
AC
100
AcDbEntity
  8
1
  6
CONTINUOUS
 62
    1
370
    5
100
AcDbLine
 10
85.7388
 20
138
 11
85.7388
 21
138.999
  0
LINE
  5
AD
100
AcDbEntity
  8
1
  6
CONTINUOUS
 62
    1
370
    5
100
AcDbLine
 10
86.5382
 20
138
 11
85.7388
 21
138
  0
LINE
  5
AE
100
AcDbEntity
  8
1
  6
CONTINUOUS
 62
    1
370
    5
100
AcDbLine
 10
129.038
 20
108.385
 11
142.889
 21
108.385
  0
LINE
  5
AF
100
AcDbEntity
  8
1
  6
CONTINUOUS
 62
    1
370
    5
100
AcDbLine
 10
129.038
 20
109.384
 11
129.038
 21
108.385
  0
LINE
  5
B0
100
AcDbEntity
  8
1
  6
CONTINUOUS
 62
    1
370
    5
100
AcDbLine
 10
171.901
 20
84.5714
 11
185.75
 21
84.5714
  0
LINE
  5
B1
100
AcDbEntity
  8
1
  6
CONTINUOUS
 62
    1
370
    5
100
AcDbLine
 10
86.5382
 20
115.999
 11
86.5382
 21
118.95
  0
LINE
  5
B2
100
AcDbEntity
  8
1
  6
CONTINUOUS
 62
    1
370
    5
100
AcDbLine
 10
185.75
 20
117.472
 11
171.901
 21
117.472
  0
LINE
  5
B3
100
AcDbEntity
  8
1
  6
CONTINUOUS
 62
    1
370
    5
100
AcDbLine
 10
185.75
 20
116.472
 11
185.75
 21
117.472
  0
LINE
  5
B4
100
AcDbEntity
  8
1
  6
CONTINUOUS
 62
    1
370
    5
100
AcDbLine
 10
186.551
 20
116.472
 11
185.75
 21
116.472
  0
LINE
  5
B5
100
AcDbEntity
  8
1
  6
CONTINUOUS
 62
    1
370
    5
100
AcDbLine
 10
186.551
 20
113.521
 11
186.551
 21
116.472
  0
LINE
  5
B6
100
AcDbEntity
  8
1
  6
CONTINUOUS
 62
    1
370
    5
100
AcDbLine
 10
124.638
 20
104.661
 11
123.839
 21
104.661
  0
LINE
  5
B7
100
AcDbEntity
  8
1
  6
CONTINUOUS
 62
    1
370
    5
100
AcDbLine
 10
162.738
 20
78.3717
 11
161.939
 21
78.3717
  0
LINE
  5
B8
100
AcDbEntity
  8
1
  6
CONTINUOUS
 62
    1
370
    5
100
AcDbLine
 10
128.239
 20
99.2353
 11
129.038
 21
99.2353
  0
LINE
  5
B9
100
AcDbEntity
  8
1
  6
CONTINUOUS
 62
    1
370
    5
100
AcDbLine
 10
128.239
 20
102.186
 11
128.239
 21
99.2353
  0
LINE
  5
BA
100
AcDbEntity
  8
1
  6
CONTINUOUS
 62
    1
370
    5
100
AcDbLine
 10
129.038
 20
102.186
 11
128.239
 21
102.186
  0
LINE
  5
BB
100
AcDbEntity
  8
1
  6
CONTINUOUS
 62
    1
370
    5
100
AcDbLine
 10
60.9808
 20
54.8831
 11
60.5801
 21
55.5763
  0
LINE
  5
BC
100
AcDbEntity
  8
1
  6
CONTINUOUS
 62
    1
370
    5
100
AcDbLine
 10
66.1335
 20
57.8584
 11
60.9808
 21
54.8831
  0
LINE
  5
BD
100
AcDbEntity
  8
1
  6
CONTINUOUS
 62
    1
370
    5
100
AcDbLine
 10
65.7338
 20
58.5502
 11
66.1335
 21
57.8584
  0
LINE
  5
BE
100
AcDbEntity
  8
1
  6
CONTINUOUS
 62
    1
370
    5
100
AcDbLine
 10
148.088
 20
56.3714
 11
148.088
 21
50.4225
  0
LINE
  5
BF
100
AcDbEntity
  8
1
  6
CONTINUOUS
 62
    1
370
    5
100
AcDbLine
 10
166.339
 20
56.3714
 11
167.138
 21
56.3714
  0
LINE
  5
C0
100
AcDbEntity
  8
1
  6
CONTINUOUS
 62
    1
370
    5
100
AcDbLine
 10
75.613
 20
47.3385
 11
76.4798
 21
47.8384
  0
LINE
  5
C1
100
AcDbEntity
  8
1
  6
CONTINUOUS
 62
    1
370
    5
100
AcDbLine
 10
181.788
 20
59.3217
 11
180.989
 21
59.3217
  0
LINE
  5
C2
100
AcDbEntity
  8
1
  6
CONTINUOUS
 62
    1
370
    5
100
AcDbLine
 10
181.788
 20
56.3714
 11
181.788
 21
59.3217
  0
LINE
  5
C3
100
AcDbEntity
  8
1
  6
CONTINUOUS
 62
    1
370
    5
100
AcDbLine
 10
76.4798
 20
47.8384
 11
69.5551
 21
59.8329
  0
LINE
  5
C4
100
AcDbEntity
  8
1
  6
CONTINUOUS
 62
    1
370
    5
100
AcDbLine
 10
104.789
 20
121.236
 11
104.789
 21
122.235
  0
LINE
  5
C5
100
AcDbEntity
  8
1
  6
CONTINUOUS
 62
    1
370
    5
100
AcDbLine
 10
124.638
 20
123.711
 11
123.839
 21
123.711
  0
LINE
  5
C6
100
AcDbEntity
  8
1
  6
CONTINUOUS
 62
    1
370
    5
100
AcDbLine
 10
124.638
 20
120.761
 11
124.638
 21
123.711
  0
LINE
  5
C7
100
AcDbEntity
  8
1
  6
CONTINUOUS
 62
    1
370
    5
100
AcDbLine
 10
123.839
 20
120.761
 11
124.638
 21
120.761
  0
LINE
  5
C8
100
AcDbEntity
  8
1
  6
CONTINUOUS
 62
    1
370
    5
100
AcDbLine
 10
123.839
 20
114.811
 11
123.839
 21
120.761
  0
LINE
  5
C9
100
AcDbEntity
  8
1
  6
CONTINUOUS
 62
    1
370
    5
100
AcDbLine
 10
142.889
 20
108.385
 11
142.889
 21
109.384
  0
LINE
  5
CA
100
AcDbEntity
  8
1
  6
CONTINUOUS
 62
    1
370
    5
100
AcDbLine
 10
142.889
 20
112.335
 11
142.889
 21
118.285
  0
LINE
  5
CB
100
AcDbEntity
  8
1
  6
CONTINUOUS
 62
    1
370
    5
100
AcDbLine
 10
143.688
 20
71.28440000000001
 11
143.688
 21
74.235
  0
LINE
  5
CC
100
AcDbEntity
  8
1
  6
CONTINUOUS
 62
    1
370
    5
100
AcDbLine
 10
109.988
 20
85.61069999999999
 11
109.189
 21
85.61069999999999
  0
LINE
  5
CD
100
AcDbEntity
  8
1
  6
CONTINUOUS
 62
    1
370
    5
100
AcDbLine
 10
104.789
 20
70.28530000000001
 11
104.789
 21
71.28440000000001
  0
LINE
  5
CE
100
AcDbEntity
  8
1
  6
CONTINUOUS
 62
    1
370
    5
100
AcDbLine
 10
123.839
 20
124.711
 11
109.988
 21
124.711
  0
LINE
  5
CF
100
AcDbEntity
  8
1
  6
CONTINUOUS
 62
    1
370
    5
100
AcDbLine
 10
123.839
 20
123.711
 11
123.839
 21
124.711
  0
LINE
  5
D0
100
AcDbEntity
  8
1
  6
CONTINUOUS
 62
    1
370
    5
100
AcDbLine
 10
109.988
 20
66.5607
 11
109.189
 21
66.5607
  0
LINE
  5
D1
100
AcDbEntity
  8
1
  6
CONTINUOUS
 62
    1
370
    5
100
AcDbLine
 10
105.588
 20
64.0856
 11
104.789
 21
64.0856
  0
LINE
  5
D2
100
AcDbEntity
  8
1
  6
CONTINUOUS
 62
    1
370
    5
100
AcDbLine
 10
109.189
 20
63.6115
 11
109.988
 21
63.6115
  0
LINE
  5
D3
100
AcDbEntity
  8
1
  6
CONTINUOUS
 62
    1
370
    5
100
AcDbLine
 10
109.189
 20
66.5607
 11
109.189
 21
63.6115
  0
LINE
  5
D4
100
AcDbEntity
  8
1
  6
CONTINUOUS
 62
    1
370
    5
100
AcDbLine
 10
147.289
 20
66.5219
 11
148.088
 21
66.5219
  0
LINE
  5
D5
100
AcDbEntity
  8
1
  6
CONTINUOUS
 62
    1
370
    5
100
AcDbLine
 10
147.289
 20
78.3717
 11
147.289
 21
75.42140000000001
  0
LINE
  5
D6
100
AcDbEntity
  8
1
  6
CONTINUOUS
 62
    1
370
    5
100
AcDbLine
 10
148.088
 20
78.3717
 11
147.289
 21
78.3717
  0
LINE
  5
D7
100
AcDbEntity
  8
1
  6
CONTINUOUS
 62
    1
370
    5
100
AcDbLine
 10
124.638
 20
73.76090000000001
 11
124.638
 21
76.71120000000001
  0
LINE
  5
D8
100
AcDbEntity
  8
1
  6
CONTINUOUS
 62
    1
370
    5
100
AcDbLine
 10
123.839
 20
73.76090000000001
 11
124.638
 21
73.76090000000001
  0
LINE
  5
D9
100
AcDbEntity
  8
1
  6
CONTINUOUS
 62
    1
370
    5
100
AcDbLine
 10
71.089
 20
80.8496
 11
71.089
 21
77.899
  0
LINE
  5
DA
100
AcDbEntity
  8
1
  6
CONTINUOUS
 62
    1
370
    5
100
AcDbLine
 10
90.139
 20
112.335
 11
90.139
 21
109.384
  0
LINE
  5
DB
100
AcDbEntity
  8
1
  6
CONTINUOUS
 62
    1
370
    5
100
AcDbLine
 10
90.938
 20
112.335
 11
90.139
 21
112.335
  0
LINE
  5
DC
100
AcDbEntity
  8
1
  6
CONTINUOUS
 62
    1
370
    5
100
AcDbLine
 10
71.88800000000001
 20
80.8496
 11
71.089
 21
80.8496
  0
LINE
  5
DD
100
AcDbEntity
  8
1
  6
CONTINUOUS
 62
    1
370
    5
100
AcDbLine
 10
71.88800000000001
 20
81.84869999999999
 11
71.88800000000001
 21
80.8496
  0
LINE
  5
DE
100
AcDbEntity
  8
1
  6
CONTINUOUS
 62
    1
370
    5
100
AcDbLine
 10
180.989
 20
79.37220000000001
 11
167.138
 21
79.37220000000001
  0
LINE
  5
DF
100
AcDbEntity
  8
1
  6
CONTINUOUS
 62
    1
370
    5
100
AcDbLine
 10
148.088
 20
65.5214
 11
161.939
 21
65.5214
  0
LINE
  5
E0
100
AcDbEntity
  8
1
  6
CONTINUOUS
 62
    1
370
    5
100
AcDbLine
 10
148.088
 20
66.5219
 11
148.088
 21
65.5214
  0
LINE
  5
E1
100
AcDbEntity
  8
1
  6
CONTINUOUS
 62
    1
370
    5
100
AcDbLine
 10
124.638
 20
130.911
 11
124.638
 21
133.861
  0
LINE
  5
E2
100
AcDbEntity
  8
1
  6
CONTINUOUS
 62
    1
370
    5
100
AcDbLine
 10
123.839
 20
130.911
 11
124.638
 21
130.911
  0
LINE
  5
E3
100
AcDbEntity
  8
1
  6
CONTINUOUS
 62
    1
370
    5
100
AcDbLine
 10
104.789
 20
137.335
 11
105.588
 21
137.335
  0
LINE
  5
E4
100
AcDbEntity
  8
1
  6
CONTINUOUS
 62
    1
370
    5
100
AcDbLine
 10
128.239
 20
131.385
 11
128.239
 21
128.434
  0
LINE
  5
E5
100
AcDbEntity
  8
1
  6
CONTINUOUS
 62
    1
370
    5
100
AcDbLine
 10
143.688
 20
131.385
 11
142.889
 21
131.385
  0
LINE
  5
E6
100
AcDbEntity
  8
1
  6
CONTINUOUS
 62
    1
370
    5
100
AcDbLine
 10
143.688
 20
128.434
 11
143.688
 21
131.385
  0
LINE
  5
E7
100
AcDbEntity
  8
1
  6
CONTINUOUS
 62
    1
370
    5
100
AcDbLine
 10
36.0786
 20
50.4141
 11
36.7714
 21
50.8138
  0
LINE
  5
E8
100
AcDbEntity
  8
1
  6
CONTINUOUS
 62
    1
370
    5
100
AcDbLine
 10
129.038
 20
128.434
 11
129.038
 21
127.435
  0
LINE
  5
E9
100
AcDbEntity
  8
1
  6
CONTINUOUS
 62
    1
370
    5
100
AcDbLine
 10
128.239
 20
128.434
 11
129.038
 21
128.434
  0
LINE
  5
EA
100
AcDbEntity
  8
1
  6
CONTINUOUS
 62
    1
370
    5
100
AcDbLine
 10
180.989
 20
59.3217
 11
180.989
 21
60.3222
  0
LINE
  5
EB
100
AcDbEntity
  8
1
  6
CONTINUOUS
 62
    1
370
    5
100
AcDbLine
 10
180.989
 20
60.3222
 11
167.138
 21
60.3222
  0
LINE
  5
EC
100
AcDbEntity
  8
1
  6
CONTINUOUS
 62
    1
370
    5
100
AcDbLine
 10
104.789
 20
83.1356
 11
104.789
 21
84.1347
  0
LINE
  5
ED
100
AcDbEntity
  8
1
  6
CONTINUOUS
 62
    1
370
    5
100
AcDbLine
 10
180.989
 20
75.42140000000001
 11
181.788
 21
75.42140000000001
  0
LINE
  5
EE
100
AcDbEntity
  8
1
  6
CONTINUOUS
 62
    1
370
    5
100
AcDbLine
 10
180.989
 20
69.4725
 11
180.989
 21
75.42140000000001
  0
LINE
  5
EF
100
AcDbEntity
  8
1
  6
CONTINUOUS
 62
    1
370
    5
100
AcDbLine
 10
181.788
 20
69.4725
 11
180.989
 21
69.4725
  0
LINE
  5
F0
100
AcDbEntity
  8
1
  6
CONTINUOUS
 62
    1
370
    5
100
AcDbLine
 10
143.688
 20
52.2344
 11
143.688
 21
55.185
  0
LINE
  5
F1
100
AcDbEntity
  8
1
  6
CONTINUOUS
 62
    1
370
    5
100
AcDbLine
 10
142.889
 20
55.185
 11
142.889
 21
61.1353
  0
LINE
  5
F2
100
AcDbEntity
  8
1
  6
CONTINUOUS
 62
    1
370
    5
100
AcDbLine
 10
143.688
 20
55.185
 11
142.889
 21
55.185
  0
LINE
  5
F3
100
AcDbEntity
  8
1
  6
CONTINUOUS
 62
    1
370
    5
100
AcDbLine
 10
104.789
 20
112.335
 11
104.789
 21
118.285
  0
LINE
  5
F4
100
AcDbEntity
  8
1
  6
CONTINUOUS
 62
    1
370
    5
100
AcDbLine
 10
161.939
 20
84.5714
 11
161.939
 21
85.5719
  0
LINE
  5
F5
100
AcDbEntity
  8
1
  6
CONTINUOUS
 62
    1
370
    5
100
AcDbLine
 10
148.088
 20
84.5714
 11
161.939
 21
84.5714
  0
LINE
  5
F6
100
AcDbEntity
  8
1
  6
CONTINUOUS
 62
    1
370
    5
100
AcDbLine
 10
148.088
 20
85.5719
 11
148.088
 21
84.5714
  0
LINE
  5
F7
100
AcDbEntity
  8
1
  6
CONTINUOUS
 62
    1
370
    5
100
AcDbLine
 10
129.038
 20
55.185
 11
128.239
 21
55.185
  0
LINE
  5
F8
100
AcDbEntity
  8
1
  6
CONTINUOUS
 62
    1
370
    5
100
AcDbLine
 10
129.038
 20
61.1353
 11
129.038
 21
55.185
  0
LINE
  5
F9
100
AcDbEntity
  8
1
  6
CONTINUOUS
 62
    1
370
    5
100
AcDbLine
 10
128.239
 20
61.1353
 11
129.038
 21
61.1353
  0
LINE
  5
FA
100
AcDbEntity
  8
1
  6
CONTINUOUS
 62
    1
370
    5
100
AcDbLine
 10
128.239
 20
64.0856
 11
128.239
 21
61.1353
  0
LINE
  5
FB
100
AcDbEntity
  8
1
  6
CONTINUOUS
 62
    1
370
    5
100
AcDbLine
 10
129.038
 20
64.0856
 11
128.239
 21
64.0856
  0
LINE
  5
FC
100
AcDbEntity
  8
1
  6
CONTINUOUS
 62
    1
370
    5
100
AcDbLine
 10
123.839
 20
66.5607
 11
123.839
 21
67.5612
  0
LINE
  5
FD
100
AcDbEntity
  8
1
  6
CONTINUOUS
 62
    1
370
    5
100
AcDbLine
 10
124.638
 20
66.5607
 11
123.839
 21
66.5607
  0
LINE
  5
FE
100
AcDbEntity
  8
1
  6
CONTINUOUS
 62
    1
370
    5
100
AcDbLine
 10
124.638
 20
63.6115
 11
124.638
 21
66.5607
  0
LINE
  5
FF
100
AcDbEntity
  8
1
  6
CONTINUOUS
 62
    1
370
    5
100
AcDbLine
 10
129.038
 20
99.2353
 11
129.038
 21
93.285
  0
LINE
  5
100
100
AcDbEntity
  8
1
  6
CONTINUOUS
 62
    1
370
    5
100
AcDbLine
 10
128.239
 20
93.285
 11
128.239
 21
90.3344
  0
LINE
  5
101
100
AcDbEntity
  8
1
  6
CONTINUOUS
 62
    1
370
    5
100
AcDbLine
 10
129.038
 20
93.285
 11
128.239
 21
93.285
  0
LINE
  5
102
100
AcDbEntity
  8
1
  6
CONTINUOUS
 62
    1
370
    5
100
AcDbLine
 10
129.038
 20
90.3344
 11
129.038
 21
89.3353
  0
LINE
  5
103
100
AcDbEntity
  8
1
  6
CONTINUOUS
 62
    1
370
    5
100
AcDbLine
 10
128.239
 20
90.3344
 11
129.038
 21
90.3344
  0
LINE
  5
104
100
AcDbEntity
  8
1
  6
CONTINUOUS
 62
    1
370
    5
100
AcDbLine
 10
109.988
 20
91.8104
 11
123.839
 21
91.8104
  0
LINE
  5
105
100
AcDbEntity
  8
1
  6
CONTINUOUS
 62
    1
370
    5
100
AcDbLine
 10
109.988
 20
92.8109
 11
109.988
 21
91.8104
  0
LINE
  5
106
100
AcDbEntity
  8
1
  6
CONTINUOUS
 62
    1
370
    5
100
AcDbLine
 10
109.189
 20
92.8109
 11
109.988
 21
92.8109
  0
LINE
  5
107
100
AcDbEntity
  8
1
  6
CONTINUOUS
 62
    1
370
    5
100
AcDbLine
 10
85.7388
 20
107.1
 11
86.5382
 21
107.1
  0
LINE
  5
108
100
AcDbEntity
  8
1
  6
CONTINUOUS
 62
    1
370
    5
100
AcDbLine
 10
109.189
 20
101.711
 11
109.988
 21
101.711
  0
LINE
  5
109
100
AcDbEntity
  8
1
  6
CONTINUOUS
 62
    1
370
    5
100
AcDbLine
 10
109.189
 20
104.661
 11
109.189
 21
101.711
  0
LINE
  5
10A
100
AcDbEntity
  8
1
  6
CONTINUOUS
 62
    1
370
    5
100
AcDbLine
 10
86.5382
 20
107.1
 11
86.5382
 21
110.049
  0
LINE
  5
10B
100
AcDbEntity
  8
1
  6
CONTINUOUS
 62
    1
370
    5
100
AcDbLine
 10
71.089
 20
107.1
 11
71.88800000000001
 21
107.1
  0
LINE
  5
10C
100
AcDbEntity
  8
1
  6
CONTINUOUS
 62
    1
370
    5
100
AcDbLine
 10
59.9817
 20
38.3134
 11
53.056
 21
50.3079
  0
LINE
  5
10D
100
AcDbEntity
  8
1
  6
CONTINUOUS
 62
    1
370
    5
100
AcDbLine
 10
38.9407
 20
36.6586
 11
38.0739
 21
36.1583
  0
LINE
  5
10E
100
AcDbEntity
  8
1
  6
CONTINUOUS
 62
    1
370
    5
100
AcDbLine
 10
35.1359
 20
17.5466
 11
37.6922
 21
19.0211
  0
LINE
  5
10F
100
AcDbEntity
  8
1
  6
CONTINUOUS
 62
    1
370
    5
100
AcDbLine
 10
34.7362
 20
18.2397
 11
35.1359
 21
17.5466
  0
LINE
  5
110
100
AcDbEntity
  8
1
  6
CONTINUOUS
 62
    1
370
    5
100
AcDbLine
 10
51.4078
 20
33.3637
 11
56.5602
 21
36.3375
  0
LINE
  5
111
100
AcDbEntity
  8
1
  6
CONTINUOUS
 62
    1
370
    5
100
AcDbLine
 10
51.8072
 20
32.6705
 11
51.4078
 21
33.3637
  0
LINE
  5
112
100
AcDbEntity
  8
1
  6
CONTINUOUS
 62
    1
370
    5
100
AcDbLine
 10
161.939
 20
59.3217
 11
161.939
 21
60.3222
  0
LINE
  5
113
100
AcDbEntity
  8
1
  6
CONTINUOUS
 62
    1
370
    5
100
AcDbLine
 10
162.738
 20
59.3217
 11
161.939
 21
59.3217
  0
LINE
  5
114
100
AcDbEntity
  8
1
  6
CONTINUOUS
 62
    1
370
    5
100
AcDbLine
 10
65.3507
 20
41.4129
 11
65.7504
 21
40.7197
  0
LINE
  5
115
100
AcDbEntity
  8
1
  6
CONTINUOUS
 62
    1
370
    5
100
AcDbLine
 10
161.939
 20
47.4719
 11
162.738
 21
47.4719
  0
LINE
  5
116
100
AcDbEntity
  8
1
  6
CONTINUOUS
 62
    1
370
    5
100
AcDbLine
 10
161.939
 20
46.4714
 11
161.939
 21
47.4719
  0
LINE
  5
117
100
AcDbEntity
  8
1
  6
CONTINUOUS
 62
    1
370
    5
100
AcDbLine
 10
148.088
 20
46.4714
 11
161.939
 21
46.4714
  0
LINE
  5
118
100
AcDbEntity
  8
1
  6
CONTINUOUS
 62
    1
370
    5
100
AcDbLine
 10
47.9834
 20
60.6944
 11
47.2916
 21
60.2947
  0
LINE
  5
119
100
AcDbEntity
  8
1
  6
CONTINUOUS
 62
    1
370
    5
100
AcDbLine
 10
90.139
 20
64.0856
 11
90.139
 21
61.1353
  0
LINE
  5
11A
100
AcDbEntity
  8
1
  6
CONTINUOUS
 62
    1
370
    5
100
AcDbLine
 10
90.938
 20
64.0856
 11
90.139
 21
64.0856
  0
LINE
  5
11B
100
AcDbEntity
  8
1
  6
CONTINUOUS
 62
    1
370
    5
100
AcDbLine
 10
90.938
 20
65.0847
 11
90.938
 21
64.0856
  0
LINE
  5
11C
100
AcDbEntity
  8
1
  6
CONTINUOUS
 62
    1
370
    5
100
AcDbLine
 10
42.3414
 20
68.86750000000001
 11
30.3471
 21
61.9428
  0
LINE
  5
11D
100
AcDbEntity
  8
1
  6
CONTINUOUS
 62
    1
370
    5
100
AcDbLine
 10
161.939
 20
103.621
 11
161.939
 21
104.622
  0
LINE
  5
11E
100
AcDbEntity
  8
1
  6
CONTINUOUS
 62
    1
370
    5
100
AcDbLine
 10
148.088
 20
103.621
 11
161.939
 21
103.621
  0
LINE
  5
11F
100
AcDbEntity
  8
1
  6
CONTINUOUS
 62
    1
370
    5
100
AcDbLine
 10
148.088
 20
104.622
 11
148.088
 21
103.621
  0
LINE
  5
120
100
AcDbEntity
  8
1
  6
CONTINUOUS
 62
    1
370
    5
100
AcDbLine
 10
36.7714
 20
50.8138
 11
37.2717
 21
49.9484
  0
LINE
  5
121
100
AcDbEntity
  8
1
  6
CONTINUOUS
 62
    1
370
    5
100
AcDbLine
 10
124.638
 20
95.7612
 11
123.839
 21
95.7612
  0
LINE
  5
122
100
AcDbEntity
  8
1
  6
CONTINUOUS
 62
    1
370
    5
100
AcDbLine
 10
124.638
 20
92.8109
 11
124.638
 21
95.7612
  0
LINE
  5
123
100
AcDbEntity
  8
1
  6
CONTINUOUS
 62
    1
370
    5
100
AcDbLine
 10
123.839
 20
92.8109
 11
124.638
 21
92.8109
  0
LINE
  5
124
100
AcDbEntity
  8
1
  6
CONTINUOUS
 62
    1
370
    5
100
AcDbLine
 10
123.839
 20
91.8104
 11
123.839
 21
92.8109
  0
LINE
  5
125
100
AcDbEntity
  8
1
  6
CONTINUOUS
 62
    1
370
    5
100
AcDbLine
 10
71.88800000000001
 20
119.95
 11
71.88800000000001
 21
118.95
  0
LINE
  5
126
100
AcDbEntity
  8
1
  6
CONTINUOUS
 62
    1
370
    5
100
AcDbLine
 10
71.88800000000001
 20
118.95
 11
71.089
 21
118.95
  0
LINE
  5
127
100
AcDbEntity
  8
1
  6
CONTINUOUS
 62
    1
370
    5
100
AcDbLine
 10
171.1
 20
107.573
 11
171.1
 21
104.622
  0
LINE
  5
128
100
AcDbEntity
  8
1
  6
CONTINUOUS
 62
    1
370
    5
100
AcDbLine
 10
171.901
 20
107.573
 11
171.1
 21
107.573
  0
LINE
  5
129
100
AcDbEntity
  8
1
  6
CONTINUOUS
 62
    1
370
    5
100
AcDbLine
 10
171.901
 20
113.521
 11
171.901
 21
107.573
  0
LINE
  5
12A
100
AcDbEntity
  8
1
  6
CONTINUOUS
 62
    1
370
    5
100
AcDbLine
 10
171.1
 20
113.521
 11
171.901
 21
113.521
  0
LINE
  5
12B
100
AcDbEntity
  8
1
  6
CONTINUOUS
 62
    1
370
    5
100
AcDbLine
 10
109.988
 20
104.661
 11
109.189
 21
104.661
  0
LINE
  5
12C
100
AcDbEntity
  8
1
  6
CONTINUOUS
 62
    1
370
    5
100
AcDbLine
 10
109.988
 20
105.661
 11
109.988
 21
104.661
  0
LINE
  5
12D
100
AcDbEntity
  8
1
  6
CONTINUOUS
 62
    1
370
    5
100
AcDbLine
 10
142.889
 20
103.185
 11
129.038
 21
103.185
  0
LINE
  5
12E
100
AcDbEntity
  8
1
  6
CONTINUOUS
 62
    1
370
    5
100
AcDbLine
 10
86.5382
 20
88.0498
 11
86.5382
 21
90.9987
  0
LINE
  5
12F
100
AcDbEntity
  8
1
  6
CONTINUOUS
 62
    1
370
    5
100
AcDbLine
 10
85.7388
 20
88.0498
 11
86.5382
 21
88.0498
  0
LINE
  5
130
100
AcDbEntity
  8
1
  6
CONTINUOUS
 62
    1
370
    5
100
AcDbLine
 10
85.7388
 20
87.0493
 11
85.7388
 21
88.0498
  0
LINE
  5
131
100
AcDbEntity
  8
1
  6
CONTINUOUS
 62
    1
370
    5
100
AcDbLine
 10
61.5061
 20
75.3717
 11
60.0315
 21
77.9268
  0
LINE
  5
132
100
AcDbEntity
  8
1
  6
CONTINUOUS
 62
    1
370
    5
100
AcDbLine
 10
60.8129
 20
74.9723
 11
61.5061
 21
75.3717
  0
LINE
  5
133
100
AcDbEntity
  8
1
  6
CONTINUOUS
 62
    1
370
    5
100
AcDbLine
 10
71.089
 20
68.99979999999999
 11
71.88800000000001
 21
68.99979999999999
  0
LINE
  5
134
100
AcDbEntity
  8
1
  6
CONTINUOUS
 62
    1
370
    5
100
AcDbLine
 10
142.889
 20
122.235
 11
129.038
 21
122.235
  0
LINE
  5
135
100
AcDbEntity
  8
1
  6
CONTINUOUS
 62
    1
370
    5
100
AcDbLine
 10
71.089
 20
71.9487
 11
71.089
 21
68.99979999999999
  0
LINE
  5
136
100
AcDbEntity
  8
1
  6
CONTINUOUS
 62
    1
370
    5
100
AcDbLine
 10
71.88800000000001
 20
71.9487
 11
71.089
 21
71.9487
  0
LINE
  5
137
100
AcDbEntity
  8
1
  6
CONTINUOUS
 62
    1
370
    5
100
AcDbLine
 10
71.88800000000001
 20
77.899
 11
71.88800000000001
 21
71.9487
  0
LINE
  5
138
100
AcDbEntity
  8
1
  6
CONTINUOUS
 62
    1
370
    5
100
AcDbLine
 10
71.089
 20
77.899
 11
71.88800000000001
 21
77.899
  0
LINE
  5
139
100
AcDbEntity
  8
1
  6
CONTINUOUS
 62
    1
370
    5
100
AcDbLine
 10
109.988
 20
63.6115
 11
109.988
 21
57.6612
  0
LINE
  5
13A
100
AcDbEntity
  8
1
  6
CONTINUOUS
 62
    1
370
    5
100
AcDbLine
 10
142.889
 20
52.2344
 11
143.688
 21
52.2344
  0
LINE
  5
13B
100
AcDbEntity
  8
1
  6
CONTINUOUS
 62
    1
370
    5
100
AcDbLine
 10
142.889
 20
51.2353
 11
142.889
 21
52.2344
  0
LINE
  5
13C
100
AcDbEntity
  8
1
  6
CONTINUOUS
 62
    1
370
    5
100
AcDbLine
 10
129.038
 20
51.2353
 11
142.889
 21
51.2353
  0
LINE
  5
13D
100
AcDbEntity
  8
1
  6
CONTINUOUS
 62
    1
370
    5
100
AcDbLine
 10
104.789
 20
71.28440000000001
 11
105.588
 21
71.28440000000001
  0
LINE
  5
13E
100
AcDbEntity
  8
1
  6
CONTINUOUS
 62
    1
370
    5
100
AcDbLine
 10
129.038
 20
52.2344
 11
129.038
 21
51.2353
  0
LINE
  5
13F
100
AcDbEntity
  8
1
  6
CONTINUOUS
 62
    1
370
    5
100
AcDbLine
 10
128.239
 20
52.2344
 11
129.038
 21
52.2344
  0
LINE
  5
140
100
AcDbEntity
  8
1
  6
CONTINUOUS
 62
    1
370
    5
100
AcDbLine
 10
128.239
 20
55.185
 11
128.239
 21
52.2344
  0
LINE
  5
141
100
AcDbEntity
  8
1
  6
CONTINUOUS
 62
    1
370
    5
100
AcDbLine
 10
109.988
 20
54.7109
 11
109.988
 21
53.7104
  0
LINE
  5
142
100
AcDbEntity
  8
1
  6
CONTINUOUS
 62
    1
370
    5
100
AcDbLine
 10
162.738
 20
116.472
 11
161.939
 21
116.472
  0
LINE
  5
143
100
AcDbEntity
  8
1
  6
CONTINUOUS
 62
    1
370
    5
100
AcDbLine
 10
105.588
 20
52.2344
 11
105.588
 21
55.185
  0
LINE
  5
144
100
AcDbEntity
  8
1
  6
CONTINUOUS
 62
    1
370
    5
100
AcDbLine
 10
104.789
 20
52.2344
 11
105.588
 21
52.2344
  0
LINE
  5
145
100
AcDbEntity
  8
1
  6
CONTINUOUS
 62
    1
370
    5
100
AcDbLine
 10
104.789
 20
51.2353
 11
104.789
 21
52.2344
  0
LINE
  5
146
100
AcDbEntity
  8
1
  6
CONTINUOUS
 62
    1
370
    5
100
AcDbLine
 10
109.189
 20
54.7109
 11
109.988
 21
54.7109
  0
LINE
  5
147
100
AcDbEntity
  8
1
  6
CONTINUOUS
 62
    1
370
    5
100
AcDbLine
 10
109.189
 20
57.6612
 11
109.189
 21
54.7109
  0
LINE
  5
148
100
AcDbEntity
  8
1
  6
CONTINUOUS
 62
    1
370
    5
100
AcDbLine
 10
109.988
 20
57.6612
 11
109.189
 21
57.6612
  0
LINE
  5
149
100
AcDbEntity
  8
1
  6
CONTINUOUS
 62
    1
370
    5
100
AcDbLine
 10
143.688
 20
61.1353
 11
143.688
 21
64.0856
  0
LINE
  5
14A
100
AcDbEntity
  8
1
  6
CONTINUOUS
 62
    1
370
    5
100
AcDbLine
 10
142.889
 20
61.1353
 11
143.688
 21
61.1353
  0
LINE
  5
14B
100
AcDbEntity
  8
1
  6
CONTINUOUS
 62
    1
370
    5
100
AcDbLine
 10
109.988
 20
67.5612
 11
109.988
 21
66.5607
  0
LINE
  5
14C
100
AcDbEntity
  8
1
  6
CONTINUOUS
 62
    1
370
    5
100
AcDbLine
 10
142.889
 20
65.0847
 11
129.038
 21
65.0847
  0
LINE
  5
14D
100
AcDbEntity
  8
1
  6
CONTINUOUS
 62
    1
370
    5
100
AcDbLine
 10
142.889
 20
64.0856
 11
142.889
 21
65.0847
  0
LINE
  5
14E
100
AcDbEntity
  8
1
  6
CONTINUOUS
 62
    1
370
    5
100
AcDbLine
 10
143.688
 20
64.0856
 11
142.889
 21
64.0856
  0
LINE
  5
14F
100
AcDbEntity
  8
1
  6
CONTINUOUS
 62
    1
370
    5
100
AcDbLine
 10
161.939
 20
79.37220000000001
 11
148.088
 21
79.37220000000001
  0
LINE
  5
150
100
AcDbEntity
  8
1
  6
CONTINUOUS
 62
    1
370
    5
100
AcDbLine
 10
161.939
 20
78.3717
 11
161.939
 21
79.37220000000001
  0
LINE
  5
151
100
AcDbEntity
  8
1
  6
CONTINUOUS
 62
    1
370
    5
100
AcDbLine
 10
123.839
 20
53.7104
 11
123.839
 21
54.7109
  0
LINE
  5
152
100
AcDbEntity
  8
1
  6
CONTINUOUS
 62
    1
370
    5
100
AcDbLine
 10
109.988
 20
53.7104
 11
123.839
 21
53.7104
  0
LINE
  5
153
100
AcDbEntity
  8
1
  6
CONTINUOUS
 62
    1
370
    5
100
AcDbLine
 10
181.788
 20
66.5219
 11
181.788
 21
69.4725
  0
LINE
  5
154
100
AcDbEntity
  8
1
  6
CONTINUOUS
 62
    1
370
    5
100
AcDbLine
 10
180.989
 20
66.5219
 11
181.788
 21
66.5219
  0
LINE
  5
155
100
AcDbEntity
  8
1
  6
CONTINUOUS
 62
    1
370
    5
100
AcDbLine
 10
180.989
 20
65.5214
 11
180.989
 21
66.5219
  0
LINE
  5
156
100
AcDbEntity
  8
1
  6
CONTINUOUS
 62
    1
370
    5
100
AcDbLine
 10
123.839
 20
82.6615
 11
124.638
 21
82.6615
  0
LINE
  5
157
100
AcDbEntity
  8
1
  6
CONTINUOUS
 62
    1
370
    5
100
AcDbLine
 10
123.839
 20
76.71120000000001
 11
123.839
 21
82.6615
  0
LINE
  5
158
100
AcDbEntity
  8
1
  6
CONTINUOUS
 62
    1
370
    5
100
AcDbLine
 10
124.638
 20
76.71120000000001
 11
123.839
 21
76.71120000000001
  0
LINE
  5
159
100
AcDbEntity
  8
1
  6
CONTINUOUS
 62
    1
370
    5
100
AcDbLine
 10
90.938
 20
70.28530000000001
 11
104.789
 21
70.28530000000001
  0
LINE
  5
15A
100
AcDbEntity
  8
1
  6
CONTINUOUS
 62
    1
370
    5
100
AcDbLine
 10
109.189
 20
85.61069999999999
 11
109.189
 21
82.6615
  0
LINE
  5
15B
100
AcDbEntity
  8
1
  6
CONTINUOUS
 62
    1
370
    5
100
AcDbLine
 10
90.938
 20
71.28440000000001
 11
90.938
 21
70.28530000000001
  0
LINE
  5
15C
100
AcDbEntity
  8
1
  6
CONTINUOUS
 62
    1
370
    5
100
AcDbLine
 10
90.139
 20
71.28440000000001
 11
90.938
 21
71.28440000000001
  0
LINE
  5
15D
100
AcDbEntity
  8
1
  6
CONTINUOUS
 62
    1
370
    5
100
AcDbLine
 10
90.139
 20
74.235
 11
90.139
 21
71.28440000000001
  0
LINE
  5
15E
100
AcDbEntity
  8
1
  6
CONTINUOUS
 62
    1
370
    5
100
AcDbLine
 10
129.038
 20
84.1347
 11
129.038
 21
83.1356
  0
LINE
  5
15F
100
AcDbEntity
  8
1
  6
CONTINUOUS
 62
    1
370
    5
100
AcDbLine
 10
104.789
 20
84.1347
 11
90.938
 21
84.1347
  0
LINE
  5
160
100
AcDbEntity
  8
1
  6
CONTINUOUS
 62
    1
370
    5
100
AcDbLine
 10
105.588
 20
83.1356
 11
104.789
 21
83.1356
  0
LINE
  5
161
100
AcDbEntity
  8
1
  6
CONTINUOUS
 62
    1
370
    5
100
AcDbLine
 10
105.588
 20
80.1853
 11
105.588
 21
83.1356
  0
LINE
  5
162
100
AcDbEntity
  8
1
  6
CONTINUOUS
 62
    1
370
    5
100
AcDbLine
 10
104.789
 20
80.1853
 11
105.588
 21
80.1853
  0
LINE
  5
163
100
AcDbEntity
  8
1
  6
CONTINUOUS
 62
    1
370
    5
100
AcDbLine
 10
142.889
 20
71.28440000000001
 11
143.688
 21
71.28440000000001
  0
LINE
  5
164
100
AcDbEntity
  8
1
  6
CONTINUOUS
 62
    1
370
    5
100
AcDbLine
 10
142.889
 20
70.28530000000001
 11
142.889
 21
71.28440000000001
  0
LINE
  5
165
100
AcDbEntity
  8
1
  6
CONTINUOUS
 62
    1
370
    5
100
AcDbLine
 10
129.038
 20
70.28530000000001
 11
142.889
 21
70.28530000000001
  0
LINE
  5
166
100
AcDbEntity
  8
1
  6
CONTINUOUS
 62
    1
370
    5
100
AcDbLine
 10
129.038
 20
71.28440000000001
 11
129.038
 21
70.28530000000001
  0
LINE
  5
167
100
AcDbEntity
  8
1
  6
CONTINUOUS
 62
    1
370
    5
100
AcDbLine
 10
68.3052
 20
42.1954
 11
67.9055
 21
42.8886
  0
LINE
  5
168
100
AcDbEntity
  8
1
  6
CONTINUOUS
 62
    1
370
    5
100
AcDbLine
 10
65.7504
 20
40.7197
 11
68.3052
 21
42.1954
  0
LINE
  5
169
100
AcDbEntity
  8
1
  6
CONTINUOUS
 62
    1
370
    5
100
AcDbLine
 10
162.738
 20
56.3714
 11
162.738
 21
59.3217
  0
LINE
  5
16A
100
AcDbEntity
  8
1
  6
CONTINUOUS
 62
    1
370
    5
100
AcDbLine
 10
161.939
 20
56.3714
 11
162.738
 21
56.3714
  0
LINE
  5
16B
100
AcDbEntity
  8
1
  6
CONTINUOUS
 62
    1
370
    5
100
AcDbLine
 10
161.939
 20
50.4225
 11
161.939
 21
56.3714
  0
LINE
  5
16C
100
AcDbEntity
  8
1
  6
CONTINUOUS
 62
    1
370
    5
100
AcDbLine
 10
162.738
 20
50.4225
 11
161.939
 21
50.4225
  0
LINE
  5
16D
100
AcDbEntity
  8
1
  6
CONTINUOUS
 62
    1
370
    5
100
AcDbLine
 10
162.738
 20
47.4719
 11
162.738
 21
50.4225
  0
LINE
  5
16E
100
AcDbEntity
  8
1
  6
CONTINUOUS
 62
    1
370
    5
100
AcDbLine
 10
67.9055
 20
42.8886
 11
73.0582
 21
45.8625
  0
LINE
  5
16F
100
AcDbEntity
  8
1
  6
CONTINUOUS
 62
    1
370
    5
100
AcDbLine
 10
147.289
 20
56.3714
 11
148.088
 21
56.3714
  0
LINE
  5
170
100
AcDbEntity
  8
1
  6
CONTINUOUS
 62
    1
370
    5
100
AcDbLine
 10
147.289
 20
59.3217
 11
147.289
 21
56.3714
  0
LINE
  5
171
100
AcDbEntity
  8
1
  6
CONTINUOUS
 62
    1
370
    5
100
AcDbLine
 10
148.088
 20
59.3217
 11
147.289
 21
59.3217
  0
LINE
  5
172
100
AcDbEntity
  8
1
  6
CONTINUOUS
 62
    1
370
    5
100
AcDbLine
 10
60.5801
 20
55.5763
 11
58.0249
 21
54.1002
  0
LINE
  5
173
100
AcDbEntity
  8
1
  6
CONTINUOUS
 62
    1
370
    5
100
AcDbLine
 10
25.7679
 20
57.4724
 11
23.2131
 21
55.9992
  0
LINE
  5
174
100
AcDbEntity
  8
1
  6
CONTINUOUS
 62
    1
370
    5
100
AcDbLine
 10
26.1676
 20
56.7806
 11
25.7679
 21
57.4724
  0
LINE
  5
175
100
AcDbEntity
  8
1
  6
CONTINUOUS
 62
    1
370
    5
100
AcDbLine
 10
27.033
 20
57.2795
 11
26.1676
 21
56.7806
  0
LINE
  5
176
100
AcDbEntity
  8
1
  6
CONTINUOUS
 62
    1
370
    5
100
AcDbLine
 10
35.5191
 20
34.6825
 11
30.3664
 21
31.7087
  0
LINE
  5
177
100
AcDbEntity
  8
1
  6
CONTINUOUS
 62
    1
370
    5
100
AcDbLine
 10
35.1193
 20
35.3755
 11
35.5191
 21
34.6825
  0
LINE
  5
178
100
AcDbEntity
  8
1
  6
CONTINUOUS
 62
    1
370
    5
100
AcDbLine
 10
76.0141
 20
46.6453
 11
75.613
 21
47.3385
  0
LINE
  5
179
100
AcDbEntity
  8
1
  6
CONTINUOUS
 62
    1
370
    5
100
AcDbLine
 10
73.4589
 20
45.1707
 11
76.0141
 21
46.6453
  0
LINE
  5
17A
100
AcDbEntity
  8
1
  6
CONTINUOUS
 62
    1
370
    5
100
AcDbLine
 10
73.0582
 20
45.8625
 11
73.4589
 21
45.1707
  0
LINE
  5
17B
100
AcDbEntity
  8
1
  6
CONTINUOUS
 62
    1
370
    5
100
AcDbLine
 10
162.738
 20
107.573
 11
161.939
 21
107.573
  0
LINE
  5
17C
100
AcDbEntity
  8
1
  6
CONTINUOUS
 62
    1
370
    5
100
AcDbLine
 10
162.738
 20
104.622
 11
162.738
 21
107.573
  0
LINE
  5
17D
100
AcDbEntity
  8
1
  6
CONTINUOUS
 62
    1
370
    5
100
AcDbLine
 10
161.939
 20
104.622
 11
162.738
 21
104.622
  0
LINE
  5
17E
100
AcDbEntity
  8
1
  6
CONTINUOUS
 62
    1
370
    5
100
AcDbLine
 10
162.738
 20
113.521
 11
162.738
 21
116.472
  0
LINE
  5
17F
100
AcDbEntity
  8
1
  6
CONTINUOUS
 62
    1
370
    5
100
AcDbLine
 10
161.939
 20
113.521
 11
162.738
 21
113.521
  0
LINE
  5
180
100
AcDbEntity
  8
1
  6
CONTINUOUS
 62
    1
370
    5
100
AcDbLine
 10
161.939
 20
107.573
 11
161.939
 21
113.521
  0
LINE
  5
181
100
AcDbEntity
  8
1
  6
CONTINUOUS
 62
    1
370
    5
100
AcDbLine
 10
161.939
 20
85.5719
 11
162.738
 21
85.5719
  0
LINE
  5
182
100
AcDbEntity
  8
1
  6
CONTINUOUS
 62
    1
370
    5
100
AcDbLine
 10
166.339
 20
50.4225
 11
166.339
 21
47.4719
  0
LINE
  5
183
100
AcDbEntity
  8
1
  6
CONTINUOUS
 62
    1
370
    5
100
AcDbLine
 10
167.138
 20
50.4225
 11
166.339
 21
50.4225
  0
LINE
  5
184
100
AcDbEntity
  8
1
  6
CONTINUOUS
 62
    1
370
    5
100
AcDbLine
 10
167.138
 20
56.3714
 11
167.138
 21
50.4225
  0
LINE
  5
185
100
AcDbEntity
  8
1
  6
CONTINUOUS
 62
    1
370
    5
100
AcDbLine
 10
124.638
 20
85.61069999999999
 11
123.839
 21
85.61069999999999
  0
LINE
  5
186
100
AcDbEntity
  8
1
  6
CONTINUOUS
 62
    1
370
    5
100
AcDbLine
 10
124.638
 20
82.6615
 11
124.638
 21
85.61069999999999
  0
LINE
  5
187
100
AcDbEntity
  8
1
  6
CONTINUOUS
 62
    1
370
    5
100
AcDbLine
 10
124.638
 20
101.711
 11
124.638
 21
104.661
  0
LINE
  5
188
100
AcDbEntity
  8
1
  6
CONTINUOUS
 62
    1
370
    5
100
AcDbLine
 10
123.839
 20
101.711
 11
124.638
 21
101.711
  0
LINE
  5
189
100
AcDbEntity
  8
1
  6
CONTINUOUS
 62
    1
370
    5
100
AcDbLine
 10
123.839
 20
95.7612
 11
123.839
 21
101.711
  0
LINE
  5
18A
100
AcDbEntity
  8
1
  6
CONTINUOUS
 62
    1
370
    5
100
AcDbLine
 10
71.089
 20
115.999
 11
71.88800000000001
 21
115.999
  0
LINE
  5
18B
100
AcDbEntity
  8
1
  6
CONTINUOUS
 62
    1
370
    5
100
AcDbLine
 10
71.089
 20
118.95
 11
71.089
 21
115.999
  0
LINE
  5
18C
100
AcDbEntity
  8
1
  6
CONTINUOUS
 62
    1
370
    5
100
AcDbLine
 10
171.901
 20
103.621
 11
185.75
 21
103.621
  0
LINE
  5
18D
100
AcDbEntity
  8
1
  6
CONTINUOUS
 62
    1
370
    5
100
AcDbLine
 10
171.901
 20
104.622
 11
171.901
 21
103.621
  0
LINE
  5
18E
100
AcDbEntity
  8
1
  6
CONTINUOUS
 62
    1
370
    5
100
AcDbLine
 10
171.1
 20
104.622
 11
171.901
 21
104.622
  0
LINE
  5
18F
100
AcDbEntity
  8
1
  6
CONTINUOUS
 62
    1
370
    5
100
AcDbLine
 10
185.75
 20
103.621
 11
185.75
 21
104.622
  0
LINE
  5
190
100
AcDbEntity
  8
1
  6
CONTINUOUS
 62
    1
370
    5
100
AcDbLine
 10
85.7388
 20
115.999
 11
86.5382
 21
115.999
  0
LINE
  5
191
100
AcDbEntity
  8
1
  6
CONTINUOUS
 62
    1
370
    5
100
AcDbLine
 10
85.7388
 20
110.049
 11
85.7388
 21
115.999
  0
LINE
  5
192
100
AcDbEntity
  8
1
  6
CONTINUOUS
 62
    1
370
    5
100
AcDbLine
 10
86.5382
 20
110.049
 11
85.7388
 21
110.049
  0
LINE
  5
193
100
AcDbEntity
  8
1
  6
CONTINUOUS
 62
    1
370
    5
100
AcDbLine
 10
109.189
 20
95.7612
 11
109.189
 21
92.8109
  0
LINE
  5
194
100
AcDbEntity
  8
1
  6
CONTINUOUS
 62
    1
370
    5
100
AcDbLine
 10
109.988
 20
95.7612
 11
109.189
 21
95.7612
  0
LINE
  5
195
100
AcDbEntity
  8
1
  6
CONTINUOUS
 62
    1
370
    5
100
AcDbLine
 10
109.988
 20
101.711
 11
109.988
 21
95.7612
  0
LINE
  5
196
100
AcDbEntity
  8
1
  6
CONTINUOUS
 62
    1
370
    5
100
AcDbLine
 10
185.75
 20
94.4714
 11
186.551
 21
94.4714
  0
LINE
  5
197
100
AcDbEntity
  8
1
  6
CONTINUOUS
 62
    1
370
    5
100
AcDbLine
 10
162.738
 20
97.4217
 11
161.939
 21
97.4217
  0
LINE
  5
198
100
AcDbEntity
  8
1
  6
CONTINUOUS
 62
    1
370
    5
100
AcDbLine
 10
162.738
 20
94.4714
 11
162.738
 21
97.4217
  0
LINE
  5
199
100
AcDbEntity
  8
1
  6
CONTINUOUS
 62
    1
370
    5
100
AcDbLine
 10
161.939
 20
94.4714
 11
162.738
 21
94.4714
  0
LINE
  5
19A
100
AcDbEntity
  8
1
  6
CONTINUOUS
 62
    1
370
    5
100
AcDbLine
 10
90.139
 20
109.384
 11
90.938
 21
109.384
  0
LINE
  5
19B
100
AcDbEntity
  8
1
  6
CONTINUOUS
 62
    1
370
    5
100
AcDbLine
 10
90.938
 20
121.236
 11
90.139
 21
121.236
  0
LINE
  5
19C
100
AcDbEntity
  8
1
  6
CONTINUOUS
 62
    1
370
    5
100
AcDbLine
 10
90.938
 20
122.235
 11
90.938
 21
121.236
  0
LINE
  5
19D
100
AcDbEntity
  8
1
  6
CONTINUOUS
 62
    1
370
    5
100
AcDbLine
 10
185.75
 20
88.52249999999999
 11
185.75
 21
94.4714
  0
LINE
  5
19E
100
AcDbEntity
  8
1
  6
CONTINUOUS
 62
    1
370
    5
100
AcDbLine
 10
86.5382
 20
90.9987
 11
85.7388
 21
90.9987
  0
LINE
  5
19F
100
AcDbEntity
  8
1
  6
CONTINUOUS
 62
    1
370
    5
100
AcDbLine
 10
186.551
 20
88.52249999999999
 11
185.75
 21
88.52249999999999
  0
LINE
  5
1A0
100
AcDbEntity
  8
1
  6
CONTINUOUS
 62
    1
370
    5
100
AcDbLine
 10
186.551
 20
85.5719
 11
186.551
 21
88.52249999999999
  0
LINE
  5
1A1
100
AcDbEntity
  8
1
  6
CONTINUOUS
 62
    1
370
    5
100
AcDbLine
 10
185.75
 20
85.5719
 11
186.551
 21
85.5719
  0
LINE
  5
1A2
100
AcDbEntity
  8
1
  6
CONTINUOUS
 62
    1
370
    5
100
AcDbLine
 10
185.75
 20
84.5714
 11
185.75
 21
85.5719
  0
LINE
  5
1A3
100
AcDbEntity
  8
1
  6
CONTINUOUS
 62
    1
370
    5
100
AcDbLine
 10
90.938
 20
118.285
 11
90.938
 21
112.335
  0
LINE
  5
1A4
100
AcDbEntity
  8
1
  6
CONTINUOUS
 62
    1
370
    5
100
AcDbLine
 10
90.139
 20
118.285
 11
90.938
 21
118.285
  0
LINE
  5
1A5
100
AcDbEntity
  8
1
  6
CONTINUOUS
 62
    1
370
    5
100
AcDbLine
 10
90.139
 20
121.236
 11
90.139
 21
118.285
  0
LINE
  5
1A6
100
AcDbEntity
  8
1
  6
CONTINUOUS
 62
    1
370
    5
100
AcDbLine
 10
128.239
 20
118.285
 11
129.038
 21
118.285
  0
LINE
  5
1A7
100
AcDbEntity
  8
1
  6
CONTINUOUS
 62
    1
370
    5
100
AcDbLine
 10
128.239
 20
121.236
 11
128.239
 21
118.285
  0
LINE
  5
1A8
100
AcDbEntity
  8
1
  6
CONTINUOUS
 62
    1
370
    5
100
AcDbLine
 10
129.038
 20
121.236
 11
128.239
 21
121.236
  0
LINE
  5
1A9
100
AcDbEntity
  8
1
  6
CONTINUOUS
 62
    1
370
    5
100
AcDbLine
 10
129.038
 20
122.235
 11
129.038
 21
121.236
  0
LINE
  5
1AA
100
AcDbEntity
  8
1
  6
CONTINUOUS
 62
    1
370
    5
100
AcDbLine
 10
104.789
 20
122.235
 11
90.938
 21
122.235
  0
LINE
  5
1AB
100
AcDbEntity
  8
1
  6
CONTINUOUS
 62
    1
370
    5
100
AcDbLine
 10
109.988
 20
86.6112
 11
109.988
 21
85.61069999999999
  0
LINE
  5
1AC
100
AcDbEntity
  8
1
  6
CONTINUOUS
 62
    1
370
    5
100
AcDbLine
 10
142.889
 20
84.1347
 11
129.038
 21
84.1347
  0
LINE
  5
1AD
100
AcDbEntity
  8
1
  6
CONTINUOUS
 62
    1
370
    5
100
AcDbLine
 10
142.889
 20
83.1356
 11
142.889
 21
84.1347
  0
LINE
  5
1AE
100
AcDbEntity
  8
1
  6
CONTINUOUS
 62
    1
370
    5
100
AcDbLine
 10
85.7388
 20
77.899
 11
86.5382
 21
77.899
  0
LINE
  5
1AF
100
AcDbEntity
  8
1
  6
CONTINUOUS
 62
    1
370
    5
100
AcDbLine
 10
85.7388
 20
71.9487
 11
85.7388
 21
77.899
  0
LINE
  5
1B0
100
AcDbEntity
  8
1
  6
CONTINUOUS
 62
    1
370
    5
100
AcDbLine
 10
86.5382
 20
71.9487
 11
85.7388
 21
71.9487
  0
LINE
  5
1B1
100
AcDbEntity
  8
1
  6
CONTINUOUS
 62
    1
370
    5
100
AcDbLine
 10
86.5382
 20
68.99979999999999
 11
86.5382
 21
71.9487
  0
LINE
  5
1B2
100
AcDbEntity
  8
1
  6
CONTINUOUS
 62
    1
370
    5
100
AcDbLine
 10
85.7388
 20
68.99979999999999
 11
86.5382
 21
68.99979999999999
  0
LINE
  5
1B3
100
AcDbEntity
  8
1
  6
CONTINUOUS
 62
    1
370
    5
100
AcDbLine
 10
104.789
 20
74.235
 11
104.789
 21
80.1853
  0
LINE
  5
1B4
100
AcDbEntity
  8
1
  6
CONTINUOUS
 62
    1
370
    5
100
AcDbLine
 10
105.588
 20
74.235
 11
104.789
 21
74.235
  0
LINE
  5
1B5
100
AcDbEntity
  8
1
  6
CONTINUOUS
 62
    1
370
    5
100
AcDbLine
 10
105.588
 20
71.28440000000001
 11
105.588
 21
74.235
  0
LINE
  5
1B6
100
AcDbEntity
  8
1
  6
CONTINUOUS
 62
    1
370
    5
100
AcDbLine
 10
90.938
 20
84.1347
 11
90.938
 21
83.1356
  0
LINE
  5
1B7
100
AcDbEntity
  8
1
  6
CONTINUOUS
 62
    1
370
    5
100
AcDbLine
 10
85.7388
 20
81.84869999999999
 11
71.88800000000001
 21
81.84869999999999
  0
LINE
  5
1B8
100
AcDbEntity
  8
1
  6
CONTINUOUS
 62
    1
370
    5
100
AcDbLine
 10
90.139
 20
83.1356
 11
90.139
 21
80.1853
  0
LINE
  5
1B9
100
AcDbEntity
  8
1
  6
CONTINUOUS
 62
    1
370
    5
100
AcDbLine
 10
90.938
 20
83.1356
 11
90.139
 21
83.1356
  0
LINE
  5
1BA
100
AcDbEntity
  8
1
  6
CONTINUOUS
 62
    1
370
    5
100
AcDbLine
 10
142.889
 20
74.235
 11
142.889
 21
80.1853
  0
LINE
  5
1BB
100
AcDbEntity
  8
1
  6
CONTINUOUS
 62
    1
370
    5
100
AcDbLine
 10
143.688
 20
74.235
 11
142.889
 21
74.235
  0
LINE
  5
1BC
100
AcDbEntity
  8
1
  6
CONTINUOUS
 62
    1
370
    5
100
AcDbLine
 10
109.189
 20
82.6615
 11
109.988
 21
82.6615
  0
LINE
  5
1BD
100
AcDbEntity
  8
1
  6
CONTINUOUS
 62
    1
370
    5
100
AcDbLine
 10
90.938
 20
74.235
 11
90.139
 21
74.235
  0
LINE
  5
1BE
100
AcDbEntity
  8
1
  6
CONTINUOUS
 62
    1
370
    5
100
AcDbLine
 10
90.938
 20
80.1853
 11
90.938
 21
74.235
  0
LINE
  5
1BF
100
AcDbEntity
  8
1
  6
CONTINUOUS
 62
    1
370
    5
100
AcDbLine
 10
90.139
 20
80.1853
 11
90.938
 21
80.1853
  0
LINE
  5
1C0
100
AcDbEntity
  8
1
  6
CONTINUOUS
 62
    1
370
    5
100
AcDbLine
 10
171.901
 20
116.472
 11
171.1
 21
116.472
  0
LINE
  5
1C1
100
AcDbEntity
  8
1
  6
CONTINUOUS
 62
    1
370
    5
100
AcDbLine
 10
171.901
 20
117.472
 11
171.901
 21
116.472
  0
LINE
  5
1C2
100
AcDbEntity
  8
1
  6
CONTINUOUS
 62
    1
370
    5
100
AcDbLine
 10
161.939
 20
117.472
 11
148.088
 21
117.472
  0
LINE
  5
1C3
100
AcDbEntity
  8
1
  6
CONTINUOUS
 62
    1
370
    5
100
AcDbLine
 10
161.939
 20
116.472
 11
161.939
 21
117.472
  0
LINE
  5
1C4
100
AcDbEntity
  8
1
  6
CONTINUOUS
 62
    1
370
    5
100
AcDbLine
 10
109.189
 20
73.76090000000001
 11
109.988
 21
73.76090000000001
  0
LINE
  5
1C5
100
AcDbEntity
  8
1
  6
CONTINUOUS
 62
    1
370
    5
100
AcDbLine
 10
129.038
 20
65.0847
 11
129.038
 21
64.0856
  0
LINE
  5
1C6
100
AcDbEntity
  8
1
  6
CONTINUOUS
 62
    1
370
    5
100
AcDbLine
 10
104.789
 20
65.0847
 11
90.938
 21
65.0847
  0
LINE
  5
1C7
100
AcDbEntity
  8
1
  6
CONTINUOUS
 62
    1
370
    5
100
AcDbLine
 10
104.789
 20
64.0856
 11
104.789
 21
65.0847
  0
LINE
  5
1C8
100
AcDbEntity
  8
1
  6
CONTINUOUS
 62
    1
370
    5
100
AcDbLine
 10
105.588
 20
55.185
 11
104.789
 21
55.185
  0
LINE
  5
1C9
100
AcDbEntity
  8
1
  6
CONTINUOUS
 62
    1
370
    5
100
AcDbLine
 10
51.1016
 20
62.4939
 11
52.5762
 21
59.9391
  0
LINE
  5
1CA
100
AcDbEntity
  8
1
  6
CONTINUOUS
 62
    1
370
    5
100
AcDbLine
 10
46.845
 20
71.4678
 11
47.3438
 21
70.60250000000001
  0
LINE
  5
1CB
100
AcDbEntity
  8
1
  6
CONTINUOUS
 62
    1
370
    5
100
AcDbLine
 10
123.839
 20
67.5612
 11
109.988
 21
67.5612
  0
LINE
  5
1CC
100
AcDbEntity
  8
1
  6
CONTINUOUS
 62
    1
370
    5
100
AcDbLine
 10
105.588
 20
61.1353
 11
105.588
 21
64.0856
  0
LINE
  5
1CD
100
AcDbEntity
  8
1
  6
CONTINUOUS
 62
    1
370
    5
100
AcDbLine
 10
104.789
 20
61.1353
 11
105.588
 21
61.1353
  0
LINE
  5
1CE
100
AcDbEntity
  8
1
  6
CONTINUOUS
 62
    1
370
    5
100
AcDbLine
 10
104.789
 20
55.185
 11
104.789
 21
61.1353
  0
LINE
  5
1CF
100
AcDbEntity
  8
1
  6
CONTINUOUS
 62
    1
370
    5
100
AcDbLine
 10
124.638
 20
54.7109
 11
124.638
 21
57.6612
  0
LINE
  5
1D0
100
AcDbEntity
  8
1
  6
CONTINUOUS
 62
    1
370
    5
100
AcDbLine
 10
123.839
 20
54.7109
 11
124.638
 21
54.7109
  0
LINE
  5
1D1
100
AcDbEntity
  8
1
  6
CONTINUOUS
 62
    1
370
    5
100
AcDbLine
 10
161.939
 20
88.52249999999999
 11
161.939
 21
94.4714
  0
LINE
  5
1D2
100
AcDbEntity
  8
1
  6
CONTINUOUS
 62
    1
370
    5
100
AcDbLine
 10
162.738
 20
88.52249999999999
 11
161.939
 21
88.52249999999999
  0
LINE
  5
1D3
100
AcDbEntity
  8
1
  6
CONTINUOUS
 62
    1
370
    5
100
AcDbLine
 10
162.738
 20
85.5719
 11
162.738
 21
88.52249999999999
  0
LINE
  5
1D4
100
AcDbEntity
  8
1
  6
CONTINUOUS
 62
    1
370
    5
100
AcDbLine
 10
143.688
 20
121.236
 11
142.889
 21
121.236
  0
LINE
  5
1D5
100
AcDbEntity
  8
1
  6
CONTINUOUS
 62
    1
370
    5
100
AcDbLine
 10
143.688
 20
118.285
 11
143.688
 21
121.236
  0
LINE
  5
1D6
100
AcDbEntity
  8
1
  6
CONTINUOUS
 62
    1
370
    5
100
AcDbLine
 10
142.889
 20
118.285
 11
143.688
 21
118.285
  0
LINE
  5
1D7
100
AcDbEntity
  8
1
  6
CONTINUOUS
 62
    1
370
    5
100
AcDbLine
 10
143.688
 20
112.335
 11
142.889
 21
112.335
  0
LINE
  5
1D8
100
AcDbEntity
  8
1
  6
CONTINUOUS
 62
    1
370
    5
100
AcDbLine
 10
143.688
 20
109.384
 11
143.688
 21
112.335
  0
LINE
  5
1D9
100
AcDbEntity
  8
1
  6
CONTINUOUS
 62
    1
370
    5
100
AcDbLine
 10
142.889
 20
109.384
 11
143.688
 21
109.384
  0
LINE
  5
1DA
100
AcDbEntity
  8
1
  6
CONTINUOUS
 62
    1
370
    5
100
AcDbLine
 10
167.138
 20
132.571
 11
167.138
 21
126.623
  0
LINE
  5
1DB
100
AcDbEntity
  8
1
  6
CONTINUOUS
 62
    1
370
    5
100
AcDbLine
 10
166.339
 20
132.571
 11
167.138
 21
132.571
  0
LINE
  5
1DC
100
AcDbEntity
  8
1
  6
CONTINUOUS
 62
    1
370
    5
100
AcDbLine
 10
166.339
 20
135.522
 11
166.339
 21
132.571
  0
LINE
  5
1DD
100
AcDbEntity
  8
1
  6
CONTINUOUS
 62
    1
370
    5
100
AcDbLine
 10
147.289
 20
132.571
 11
148.088
 21
132.571
  0
LINE
  5
1DE
100
AcDbEntity
  8
1
  6
CONTINUOUS
 62
    1
370
    5
100
AcDbLine
 10
147.289
 20
135.522
 11
147.289
 21
132.571
  0
LINE
  5
1DF
100
AcDbEntity
  8
1
  6
CONTINUOUS
 62
    1
370
    5
100
AcDbLine
 10
148.088
 20
135.522
 11
147.289
 21
135.522
  0
LINE
  5
1E0
100
AcDbEntity
  8
1
  6
CONTINUOUS
 62
    1
370
    5
100
AcDbLine
 10
148.088
 20
136.522
 11
148.088
 21
135.522
  0
LINE
  5
1E1
100
AcDbEntity
  8
1
  6
CONTINUOUS
 62
    1
370
    5
100
AcDbLine
 10
85.7388
 20
119.95
 11
71.88800000000001
 21
119.95
  0
LINE
  5
1E2
100
AcDbEntity
  8
1
  6
CONTINUOUS
 62
    1
370
    5
100
AcDbLine
 10
85.7388
 20
118.95
 11
85.7388
 21
119.95
  0
LINE
  5
1E3
100
AcDbEntity
  8
1
  6
CONTINUOUS
 62
    1
370
    5
100
AcDbLine
 10
86.5382
 20
118.95
 11
85.7388
 21
118.95
  0
LINE
  5
1E4
100
AcDbEntity
  8
1
  6
CONTINUOUS
 62
    1
370
    5
100
AcDbLine
 10
71.089
 20
110.049
 11
71.089
 21
107.1
  0
LINE
  5
1E5
100
AcDbEntity
  8
1
  6
CONTINUOUS
 62
    1
370
    5
100
AcDbLine
 10
71.88800000000001
 20
110.049
 11
71.089
 21
110.049
  0
LINE
  5
1E6
100
AcDbEntity
  8
1
  6
CONTINUOUS
 62
    1
370
    5
100
AcDbLine
 10
71.88800000000001
 20
115.999
 11
71.88800000000001
 21
110.049
  0
LINE
  5
1E7
100
AcDbEntity
  8
1
  6
CONTINUOUS
 62
    1
370
    5
100
AcDbLine
 10
85.7388
 20
106.099
 11
85.7388
 21
107.1
  0
LINE
  5
1E8
100
AcDbEntity
  8
1
  6
CONTINUOUS
 62
    1
370
    5
100
AcDbLine
 10
71.88800000000001
 20
106.099
 11
85.7388
 21
106.099
  0
LINE
  5
1E9
100
AcDbEntity
  8
1
  6
CONTINUOUS
 62
    1
370
    5
100
AcDbLine
 10
71.88800000000001
 20
107.1
 11
71.88800000000001
 21
106.099
  0
LINE
  5
1EA
100
AcDbEntity
  8
1
  6
CONTINUOUS
 62
    1
370
    5
100
AcDbLine
 10
58.838
 20
78.3925
 11
46.845
 21
71.4678
  0
LINE
  5
1EB
100
AcDbEntity
  8
1
  6
CONTINUOUS
 62
    1
370
    5
100
AcDbLine
 10
59.3383
 20
77.5271
 11
58.838
 21
78.3925
  0
LINE
  5
1EC
100
AcDbEntity
  8
1
  6
CONTINUOUS
 62
    1
370
    5
100
AcDbLine
 10
60.0315
 20
77.9268
 11
59.3383
 21
77.5271
  0
LINE
  5
1ED
100
AcDbEntity
  8
1
  6
CONTINUOUS
 62
    1
370
    5
100
AcDbLine
 10
143.688
 20
90.3344
 11
143.688
 21
93.285
  0
LINE
  5
1EE
100
AcDbEntity
  8
1
  6
CONTINUOUS
 62
    1
370
    5
100
AcDbLine
 10
35.2972
 20
53.3686
 11
34.6039
 21
52.9689
  0
LINE
  5
1EF
100
AcDbEntity
  8
1
  6
CONTINUOUS
 62
    1
370
    5
100
AcDbLine
 10
32.3219
 20
58.5227
 11
35.2972
 21
53.3686
  0
LINE
  5
1F0
100
AcDbEntity
  8
1
  6
CONTINUOUS
 62
    1
370
    5
100
AcDbLine
 10
31.6288
 20
58.1215
 11
32.3219
 21
58.5227
  0
LINE
  5
1F1
100
AcDbEntity
  8
1
  6
CONTINUOUS
 62
    1
370
    5
100
AcDbLine
 10
48.7659
 20
57.7384
 11
49.4591
 21
58.1395
  0
LINE
  5
1F2
100
AcDbEntity
  8
1
  6
CONTINUOUS
 62
    1
370
    5
100
AcDbLine
 10
49.2661
 20
56.8745
 11
48.7659
 21
57.7384
  0
LINE
  5
1F3
100
AcDbEntity
  8
1
  6
CONTINUOUS
 62
    1
370
    5
100
AcDbLine
 10
37.2717
 20
49.9484
 11
49.2661
 21
56.8745
  0
LINE
  5
1F4
100
AcDbEntity
  8
1
  6
CONTINUOUS
 62
    1
370
    5
100
AcDbLine
 10
90.938
 20
51.2353
 11
104.789
 21
51.2353
  0
LINE
  5
1F5
100
AcDbEntity
  8
1
  6
CONTINUOUS
 62
    1
370
    5
100
AcDbLine
 10
90.938
 20
52.2344
 11
90.938
 21
51.2353
  0
LINE
  5
1F6
100
AcDbEntity
  8
1
  6
CONTINUOUS
 62
    1
370
    5
100
AcDbLine
 10
90.139
 20
52.2344
 11
90.938
 21
52.2344
  0
LINE
  5
1F7
100
AcDbEntity
  8
1
  6
CONTINUOUS
 62
    1
370
    5
100
AcDbLine
 10
90.139
 20
55.185
 11
90.139
 21
52.2344
  0
LINE
  5
1F8
100
AcDbEntity
  8
1
  6
CONTINUOUS
 62
    1
370
    5
100
AcDbLine
 10
148.088
 20
116.472
 11
147.289
 21
116.472
  0
LINE
  5
1F9
100
AcDbEntity
  8
1
  6
CONTINUOUS
 62
    1
370
    5
100
AcDbLine
 10
148.088
 20
117.472
 11
148.088
 21
116.472
  0
LINE
  5
1FA
100
AcDbEntity
  8
1
  6
CONTINUOUS
 62
    1
370
    5
100
AcDbLine
 10
123.839
 20
105.661
 11
109.988
 21
105.661
  0
LINE
  5
1FB
100
AcDbEntity
  8
1
  6
CONTINUOUS
 62
    1
370
    5
100
AcDbLine
 10
123.839
 20
104.661
 11
123.839
 21
105.661
  0
LINE
  5
1FC
100
AcDbEntity
  8
1
  6
CONTINUOUS
 62
    1
370
    5
100
AcDbLine
 10
64.48390000000001
 20
40.9127
 11
65.3507
 21
41.4129
  0
LINE
  5
1FD
100
AcDbEntity
  8
1
  6
CONTINUOUS
 62
    1
370
    5
100
AcDbLine
 10
57.5592
 20
52.9086
 11
64.48390000000001
 21
40.9127
  0
LINE
  5
1FE
100
AcDbEntity
  8
1
  6
CONTINUOUS
 62
    1
370
    5
100
AcDbLine
 10
58.426
 20
53.4088
 11
57.5592
 21
52.9086
  0
LINE
  5
1FF
100
AcDbEntity
  8
1
  6
CONTINUOUS
 62
    1
370
    5
100
AcDbLine
 10
58.0249
 20
54.1002
 11
58.426
 21
53.4088
  0
LINE
  5
200
100
AcDbEntity
  8
1
  6
CONTINUOUS
 62
    1
370
    5
100
AcDbLine
 10
69.5551
 20
59.8329
 11
68.6883
 21
59.333
  0
LINE
  5
201
100
AcDbEntity
  8
1
  6
CONTINUOUS
 62
    1
370
    5
100
AcDbLine
 10
148.088
 20
60.3222
 11
148.088
 21
59.3217
  0
LINE
  5
202
100
AcDbEntity
  8
1
  6
CONTINUOUS
 62
    1
370
    5
100
AcDbLine
 10
68.2886
 20
60.0244
 11
65.7338
 21
58.5502
  0
LINE
  5
203
100
AcDbEntity
  8
1
  6
CONTINUOUS
 62
    1
370
    5
100
AcDbLine
 10
68.6883
 20
59.333
 11
68.2886
 21
60.0244
  0
LINE
  5
204
100
AcDbEntity
  8
1
  6
CONTINUOUS
 62
    1
370
    5
100
AcDbLine
 10
147.289
 20
47.4719
 11
148.088
 21
47.4719
  0
LINE
  5
205
100
AcDbEntity
  8
1
  6
CONTINUOUS
 62
    1
370
    5
100
AcDbLine
 10
147.289
 20
50.4225
 11
147.289
 21
47.4719
  0
LINE
  5
206
100
AcDbEntity
  8
1
  6
CONTINUOUS
 62
    1
370
    5
100
AcDbLine
 10
148.088
 20
50.4225
 11
147.289
 21
50.4225
  0
LINE
  5
207
100
AcDbEntity
  8
1
  6
CONTINUOUS
 62
    1
370
    5
100
AcDbLine
 10
90.938
 20
55.185
 11
90.139
 21
55.185
  0
LINE
  5
208
100
AcDbEntity
  8
1
  6
CONTINUOUS
 62
    1
370
    5
100
AcDbLine
 10
90.938
 20
61.1353
 11
90.938
 21
55.185
  0
LINE
  5
209
100
AcDbEntity
  8
1
  6
CONTINUOUS
 62
    1
370
    5
100
AcDbLine
 10
90.139
 20
61.1353
 11
90.938
 21
61.1353
  0
LINE
  5
20A
100
AcDbEntity
  8
1
  6
CONTINUOUS
 62
    1
370
    5
100
AcDbLine
 10
185.75
 20
104.622
 11
186.551
 21
104.622
  0
LINE
  5
20B
100
AcDbEntity
  8
1
  6
CONTINUOUS
 62
    1
370
    5
100
AcDbLine
 10
162.738
 20
75.42140000000001
 11
162.738
 21
78.3717
  0
LINE
  5
20C
100
AcDbEntity
  8
1
  6
CONTINUOUS
 62
    1
370
    5
100
AcDbLine
 10
161.939
 20
75.42140000000001
 11
162.738
 21
75.42140000000001
  0
LINE
  5
20D
100
AcDbEntity
  8
1
  6
CONTINUOUS
 62
    1
370
    5
100
AcDbLine
 10
161.939
 20
69.4725
 11
161.939
 21
75.42140000000001
  0
LINE
  5
20E
100
AcDbEntity
  8
1
  6
CONTINUOUS
 62
    1
370
    5
100
AcDbLine
 10
86.5382
 20
96.949
 11
86.5382
 21
99.89960000000001
  0
LINE
  5
20F
100
AcDbEntity
  8
1
  6
CONTINUOUS
 62
    1
370
    5
100
AcDbLine
 10
85.7388
 20
96.949
 11
86.5382
 21
96.949
  0
LINE
  5
210
100
AcDbEntity
  8
1
  6
CONTINUOUS
 62
    1
370
    5
100
AcDbLine
 10
85.7388
 20
90.9987
 11
85.7388
 21
96.949
  0
LINE
  5
211
100
AcDbEntity
  8
1
  6
CONTINUOUS
 62
    1
370
    5
100
AcDbLine
 10
71.089
 20
90.9987
 11
71.089
 21
88.0498
  0
LINE
  5
212
100
AcDbEntity
  8
1
  6
CONTINUOUS
 62
    1
370
    5
100
AcDbLine
 10
71.88800000000001
 20
90.9987
 11
71.089
 21
90.9987
  0
LINE
  5
213
100
AcDbEntity
  8
1
  6
CONTINUOUS
 62
    1
370
    5
100
AcDbLine
 10
161.939
 20
98.4222
 11
148.088
 21
98.4222
  0
LINE
  5
214
100
AcDbEntity
  8
1
  6
CONTINUOUS
 62
    1
370
    5
100
AcDbLine
 10
161.939
 20
97.4217
 11
161.939
 21
98.4222
  0
LINE
  5
215
100
AcDbEntity
  8
1
  6
CONTINUOUS
 62
    1
370
    5
100
AcDbLine
 10
71.089
 20
96.949
 11
71.88800000000001
 21
96.949
  0
LINE
  5
216
100
AcDbEntity
  8
1
  6
CONTINUOUS
 62
    1
370
    5
100
AcDbLine
 10
71.089
 20
99.89960000000001
 11
71.089
 21
96.949
  0
LINE
  5
217
100
AcDbEntity
  8
1
  6
CONTINUOUS
 62
    1
370
    5
100
AcDbLine
 10
71.88800000000001
 20
99.89960000000001
 11
71.089
 21
99.89960000000001
  0
LINE
  5
218
100
AcDbEntity
  8
1
  6
CONTINUOUS
 62
    1
370
    5
100
AcDbLine
 10
186.551
 20
97.4217
 11
185.75
 21
97.4217
  0
LINE
  5
219
100
AcDbEntity
  8
1
  6
CONTINUOUS
 62
    1
370
    5
100
AcDbLine
 10
186.551
 20
94.4714
 11
186.551
 21
97.4217
  0
LINE
  5
21A
100
AcDbEntity
  8
1
  6
CONTINUOUS
 62
    1
370
    5
100
AcDbLine
 10
85.7388
 20
67.99930000000001
 11
85.7388
 21
68.99979999999999
  0
LINE
  5
21B
100
AcDbEntity
  8
1
  6
CONTINUOUS
 62
    1
370
    5
100
AcDbLine
 10
71.88800000000001
 20
67.99930000000001
 11
85.7388
 21
67.99930000000001
  0
LINE
  5
21C
100
AcDbEntity
  8
1
  6
CONTINUOUS
 62
    1
370
    5
100
AcDbLine
 10
71.88800000000001
 20
68.99979999999999
 11
71.88800000000001
 21
67.99930000000001
  0
LINE
  5
21D
100
AcDbEntity
  8
1
  6
CONTINUOUS
 62
    1
370
    5
100
AcDbLine
 10
22.8299
 20
38.8606
 11
23.231
 21
38.1674
  0
LINE
  5
21E
100
AcDbEntity
  8
1
  6
CONTINUOUS
 62
    1
370
    5
100
AcDbLine
 10
49.2358
 20
49.0252
 11
49.6355
 21
48.3334
  0
LINE
  5
21F
100
AcDbEntity
  8
1
  6
CONTINUOUS
 62
    1
370
    5
100
AcDbLine
 10
37.6742
 20
36.8515
 11
35.1193
 21
35.3755
  0
LINE
  5
220
100
AcDbEntity
  8
1
  6
CONTINUOUS
 62
    1
370
    5
100
AcDbLine
 10
38.0739
 20
36.1583
 11
37.6742
 21
36.8515
  0
LINE
  5
221
100
AcDbEntity
  8
1
  6
CONTINUOUS
 62
    1
370
    5
100
AcDbLine
 10
45
 20
24.1639
 11
45.8653
 21
24.6641
  0
LINE
  5
222
100
AcDbEntity
  8
1
  6
CONTINUOUS
 62
    1
370
    5
100
AcDbLine
 10
45.3993
 20
23.4708
 11
45
 21
24.1639
  0
LINE
  5
223
100
AcDbEntity
  8
1
  6
CONTINUOUS
 62
    1
370
    5
100
AcDbLine
 10
42.8445
 20
21.9963
 11
45.3993
 21
23.4708
  0
LINE
  5
224
100
AcDbEntity
  8
1
  6
CONTINUOUS
 62
    1
370
    5
100
AcDbLine
 10
181.788
 20
47.4719
 11
181.788
 21
50.4225
  0
LINE
  5
225
100
AcDbEntity
  8
1
  6
CONTINUOUS
 62
    1
370
    5
100
AcDbLine
 10
30.1529
 20
60.6764
 11
31.6288
 21
58.1215
  0
LINE
  5
226
100
AcDbEntity
  8
1
  6
CONTINUOUS
 62
    1
370
    5
100
AcDbLine
 10
30.846
 20
61.0775
 11
30.1529
 21
60.6764
  0
LINE
  5
227
100
AcDbEntity
  8
1
  6
CONTINUOUS
 62
    1
370
    5
100
AcDbLine
 10
30.3471
 20
61.9428
 11
30.846
 21
61.0775
  0
LINE
  5
228
100
AcDbEntity
  8
1
  6
CONTINUOUS
 62
    1
370
    5
100
AcDbLine
 10
167.138
 20
59.3217
 11
166.339
 21
59.3217
  0
LINE
  5
229
100
AcDbEntity
  8
1
  6
CONTINUOUS
 62
    1
370
    5
100
AcDbLine
 10
167.138
 20
60.3222
 11
167.138
 21
59.3217
  0
LINE
  5
22A
100
AcDbEntity
  8
1
  6
CONTINUOUS
 62
    1
370
    5
100
AcDbLine
 10
161.939
 20
60.3222
 11
148.088
 21
60.3222
  0
LINE
  5
22B
100
AcDbEntity
  8
1
  6
CONTINUOUS
 62
    1
370
    5
100
AcDbLine
 10
29.9668
 20
32.4005
 11
27.4119
 21
30.9259
  0
LINE
  5
22C
100
AcDbEntity
  8
1
  6
CONTINUOUS
 62
    1
370
    5
100
AcDbLine
 10
30.3664
 20
31.7087
 11
29.9668
 21
32.4005
  0
LINE
  5
22D
100
AcDbEntity
  8
1
  6
CONTINUOUS
 62
    1
370
    5
100
AcDbLine
 10
41.5286
 20
44.5752
 11
41.9283
 21
43.8838
  0
LINE
  5
22E
100
AcDbEntity
  8
1
  6
CONTINUOUS
 62
    1
370
    5
100
AcDbLine
 10
44.0821
 20
46.0498
 11
41.5286
 21
44.5752
  0
LINE
  5
22F
100
AcDbEntity
  8
1
  6
CONTINUOUS
 62
    1
370
    5
100
AcDbLine
 10
44.4832
 20
45.3581
 11
44.0821
 21
46.0498
  0
LINE
  5
230
100
AcDbEntity
  8
1
  6
CONTINUOUS
 62
    1
370
    5
100
AcDbLine
 10
49.6355
 20
48.3334
 11
44.4832
 21
45.3581
  0
LINE
  5
231
100
AcDbEntity
  8
1
  6
CONTINUOUS
 62
    1
370
    5
100
AcDbLine
 10
15.5057
 20
51.5482
 11
15.9053
 21
50.855
  0
LINE
  5
232
100
AcDbEntity
  8
1
  6
CONTINUOUS
 62
    1
370
    5
100
AcDbLine
 10
33.0922
 20
44.7862
 11
33.959
 21
45.2864
  0
LINE
  5
233
100
AcDbEntity
  8
1
  6
CONTINUOUS
 62
    1
370
    5
100
AcDbLine
 10
33.4918
 20
44.093
 11
33.0922
 21
44.7862
  0
LINE
  5
234
100
AcDbEntity
  8
1
  6
CONTINUOUS
 62
    1
370
    5
100
AcDbLine
 10
30.9383
 20
42.6187
 11
33.4918
 21
44.093
  0
LINE
  5
235
100
AcDbEntity
  8
1
  6
CONTINUOUS
 62
    1
370
    5
100
AcDbLine
 10
18.4602
 20
52.3296
 11
18.0606
 21
53.0229
  0
LINE
  5
236
100
AcDbEntity
  8
1
  6
CONTINUOUS
 62
    1
370
    5
100
AcDbLine
 10
23.6141
 20
55.305
 11
18.4602
 21
52.3296
  0
LINE
  5
237
100
AcDbEntity
  8
1
  6
CONTINUOUS
 62
    1
370
    5
100
AcDbLine
 10
23.2131
 20
55.9992
 11
23.6141
 21
55.305
  0
LINE
  5
238
100
AcDbEntity
  8
1
  6
CONTINUOUS
 62
    1
370
    5
100
AcDbLine
 10
30.5387
 20
43.3116
 11
30.9383
 21
42.6187
  0
LINE
  5
239
100
AcDbEntity
  8
1
  6
CONTINUOUS
 62
    1
370
    5
100
AcDbLine
 10
25.3848
 20
40.3366
 11
30.5387
 21
43.3116
  0
LINE
  5
23A
100
AcDbEntity
  8
1
  6
CONTINUOUS
 62
    1
370
    5
100
AcDbLine
 10
25.7859
 20
39.6434
 11
25.3848
 21
40.3366
  0
LINE
  5
23B
100
AcDbEntity
  8
1
  6
CONTINUOUS
 62
    1
370
    5
100
AcDbLine
 10
23.231
 20
38.1674
 11
25.7859
 21
39.6434
  0
LINE
  5
23C
100
AcDbEntity
  8
1
  6
CONTINUOUS
 62
    1
370
    5
100
AcDbLine
 10
167.138
 20
47.4719
 11
167.138
 21
46.4714
  0
LINE
  5
23D
100
AcDbEntity
  8
1
  6
CONTINUOUS
 62
    1
370
    5
100
AcDbLine
 10
166.339
 20
47.4719
 11
167.138
 21
47.4719
  0
LINE
  5
23E
100
AcDbEntity
  8
1
  6
CONTINUOUS
 62
    1
370
    5
100
AcDbLine
 10
90.938
 20
90.3344
 11
90.938
 21
89.3353
  0
LINE
  5
23F
100
AcDbEntity
  8
1
  6
CONTINUOUS
 62
    1
370
    5
100
AcDbLine
 10
90.139
 20
90.3344
 11
90.938
 21
90.3344
  0
LINE
  5
240
100
AcDbEntity
  8
1
  6
CONTINUOUS
 62
    1
370
    5
100
AcDbLine
 10
90.139
 20
93.285
 11
90.139
 21
90.3344
  0
LINE
  5
241
100
AcDbEntity
  8
1
  6
CONTINUOUS
 62
    1
370
    5
100
AcDbLine
 10
104.789
 20
90.3344
 11
105.588
 21
90.3344
  0
LINE
  5
242
100
AcDbEntity
  8
1
  6
CONTINUOUS
 62
    1
370
    5
100
AcDbLine
 10
104.789
 20
89.3353
 11
104.789
 21
90.3344
  0
LINE
  5
243
100
AcDbEntity
  8
1
  6
CONTINUOUS
 62
    1
370
    5
100
AcDbLine
 10
90.938
 20
89.3353
 11
104.789
 21
89.3353
  0
LINE
  5
244
100
AcDbEntity
  8
1
  6
CONTINUOUS
 62
    1
370
    5
100
AcDbLine
 10
105.588
 20
102.186
 11
104.789
 21
102.186
  0
LINE
  5
245
100
AcDbEntity
  8
1
  6
CONTINUOUS
 62
    1
370
    5
100
AcDbLine
 10
105.588
 20
99.2353
 11
105.588
 21
102.186
  0
LINE
  5
246
100
AcDbEntity
  8
1
  6
CONTINUOUS
 62
    1
370
    5
100
AcDbLine
 10
104.789
 20
99.2353
 11
105.588
 21
99.2353
  0
LINE
  5
247
100
AcDbEntity
  8
1
  6
CONTINUOUS
 62
    1
370
    5
100
AcDbLine
 10
104.789
 20
93.285
 11
104.789
 21
99.2353
  0
LINE
  5
248
100
AcDbEntity
  8
1
  6
CONTINUOUS
 62
    1
370
    5
100
AcDbLine
 10
105.588
 20
93.285
 11
104.789
 21
93.285
  0
LINE
  5
249
100
AcDbEntity
  8
1
  6
CONTINUOUS
 62
    1
370
    5
100
AcDbLine
 10
105.588
 20
90.3344
 11
105.588
 21
93.285
  0
LINE
  5
24A
100
AcDbEntity
  8
1
  6
CONTINUOUS
 62
    1
370
    5
100
AcDbLine
 10
85.7388
 20
99.89960000000001
 11
85.7388
 21
100.899
  0
LINE
  5
24B
100
AcDbEntity
  8
1
  6
CONTINUOUS
 62
    1
370
    5
100
AcDbLine
 10
86.5382
 20
99.89960000000001
 11
85.7388
 21
99.89960000000001
  0
LINE
  5
24C
100
AcDbEntity
  8
1
  6
CONTINUOUS
 62
    1
370
    5
100
AcDbLine
 10
171.901
 20
97.4217
 11
171.1
 21
97.4217
  0
LINE
  5
24D
100
AcDbEntity
  8
1
  6
CONTINUOUS
 62
    1
370
    5
100
AcDbLine
 10
171.901
 20
98.4222
 11
171.901
 21
97.4217
  0
LINE
  5
24E
100
AcDbEntity
  8
1
  6
CONTINUOUS
 62
    1
370
    5
100
AcDbLine
 10
171.1
 20
94.4714
 11
171.901
 21
94.4714
  0
LINE
  5
24F
100
AcDbEntity
  8
1
  6
CONTINUOUS
 62
    1
370
    5
100
AcDbLine
 10
171.1
 20
97.4217
 11
171.1
 21
94.4714
  0
LINE
  5
250
100
AcDbEntity
  8
1
  6
CONTINUOUS
 62
    1
370
    5
100
AcDbLine
 10
129.038
 20
103.185
 11
129.038
 21
102.186
  0
LINE
  5
251
100
AcDbEntity
  8
1
  6
CONTINUOUS
 62
    1
370
    5
100
AcDbLine
 10
104.789
 20
103.185
 11
90.938
 21
103.185
  0
LINE
  5
252
100
AcDbEntity
  8
1
  6
CONTINUOUS
 62
    1
370
    5
100
AcDbLine
 10
104.789
 20
102.186
 11
104.789
 21
103.185
  0
LINE
  5
253
100
AcDbEntity
  8
1
  6
CONTINUOUS
 62
    1
370
    5
100
AcDbLine
 10
71.88800000000001
 20
87.0493
 11
85.7388
 21
87.0493
  0
LINE
  5
254
100
AcDbEntity
  8
1
  6
CONTINUOUS
 62
    1
370
    5
100
AcDbLine
 10
71.88800000000001
 20
88.0498
 11
71.88800000000001
 21
87.0493
  0
LINE
  5
255
100
AcDbEntity
  8
1
  6
CONTINUOUS
 62
    1
370
    5
100
AcDbLine
 10
71.089
 20
88.0498
 11
71.88800000000001
 21
88.0498
  0
LINE
  5
256
100
AcDbEntity
  8
1
  6
CONTINUOUS
 62
    1
370
    5
100
AcDbLine
 10
71.88800000000001
 20
100.899
 11
71.88800000000001
 21
99.89960000000001
  0
LINE
  5
257
100
AcDbEntity
  8
1
  6
CONTINUOUS
 62
    1
370
    5
100
AcDbLine
 10
185.75
 20
98.4222
 11
171.901
 21
98.4222
  0
LINE
  5
258
100
AcDbEntity
  8
1
  6
CONTINUOUS
 62
    1
370
    5
100
AcDbLine
 10
185.75
 20
97.4217
 11
185.75
 21
98.4222
  0
LINE
  5
259
100
AcDbEntity
  8
1
  6
CONTINUOUS
 62
    1
370
    5
100
AcDbLine
 10
90.938
 20
99.2353
 11
90.938
 21
93.285
  0
LINE
  5
25A
100
AcDbEntity
  8
1
  6
CONTINUOUS
 62
    1
370
    5
100
AcDbLine
 10
90.139
 20
99.2353
 11
90.938
 21
99.2353
  0
LINE
  5
25B
100
AcDbEntity
  8
1
  6
CONTINUOUS
 62
    1
370
    5
100
AcDbLine
 10
90.139
 20
102.186
 11
90.139
 21
99.2353
  0
LINE
  5
25C
100
AcDbEntity
  8
1
  6
CONTINUOUS
 62
    1
370
    5
100
AcDbLine
 10
171.901
 20
88.52249999999999
 11
171.1
 21
88.52249999999999
  0
LINE
  5
25D
100
AcDbEntity
  8
1
  6
CONTINUOUS
 62
    1
370
    5
100
AcDbLine
 10
171.901
 20
94.4714
 11
171.901
 21
88.52249999999999
  0
LINE
  5
25E
100
AcDbEntity
  8
1
  6
CONTINUOUS
 62
    1
370
    5
100
AcDbLine
 10
143.688
 20
83.1356
 11
142.889
 21
83.1356
  0
LINE
  5
25F
100
AcDbEntity
  8
1
  6
CONTINUOUS
 62
    1
370
    5
100
AcDbLine
 10
143.688
 20
80.1853
 11
143.688
 21
83.1356
  0
LINE
  5
260
100
AcDbEntity
  8
1
  6
CONTINUOUS
 62
    1
370
    5
100
AcDbLine
 10
142.889
 20
80.1853
 11
143.688
 21
80.1853
  0
LINE
  5
261
100
AcDbEntity
  8
1
  6
CONTINUOUS
 62
    1
370
    5
100
AcDbLine
 10
109.189
 20
76.71120000000001
 11
109.189
 21
73.76090000000001
  0
LINE
  5
262
100
AcDbEntity
  8
1
  6
CONTINUOUS
 62
    1
370
    5
100
AcDbLine
 10
109.988
 20
76.71120000000001
 11
109.189
 21
76.71120000000001
  0
LINE
  5
263
100
AcDbEntity
  8
1
  6
CONTINUOUS
 62
    1
370
    5
100
AcDbLine
 10
109.988
 20
82.6615
 11
109.988
 21
76.71120000000001
  0
LINE
  5
264
100
AcDbEntity
  8
1
  6
CONTINUOUS
 62
    1
370
    5
100
AcDbLine
 10
128.239
 20
83.1356
 11
128.239
 21
80.1853
  0
LINE
  5
265
100
AcDbEntity
  8
1
  6
CONTINUOUS
 62
    1
370
    5
100
AcDbLine
 10
129.038
 20
83.1356
 11
128.239
 21
83.1356
  0
LINE
  5
266
100
AcDbEntity
  8
1
  6
CONTINUOUS
 62
    1
370
    5
100
AcDbLine
 10
148.088
 20
88.52249999999999
 11
147.289
 21
88.52249999999999
  0
LINE
  5
267
100
AcDbEntity
  8
1
  6
CONTINUOUS
 62
    1
370
    5
100
AcDbLine
 10
148.088
 20
94.4714
 11
148.088
 21
88.52249999999999
  0
LINE
  5
268
100
AcDbEntity
  8
1
  6
CONTINUOUS
 62
    1
370
    5
100
AcDbLine
 10
147.289
 20
94.4714
 11
148.088
 21
94.4714
  0
LINE
  5
269
100
AcDbEntity
  8
1
  6
CONTINUOUS
 62
    1
370
    5
100
AcDbLine
 10
147.289
 20
97.4217
 11
147.289
 21
94.4714
  0
LINE
  5
26A
100
AcDbEntity
  8
1
  6
CONTINUOUS
 62
    1
370
    5
100
AcDbLine
 10
185.75
 20
107.573
 11
185.75
 21
113.521
  0
LINE
  5
26B
100
AcDbEntity
  8
1
  6
CONTINUOUS
 62
    1
370
    5
100
AcDbLine
 10
186.551
 20
107.573
 11
185.75
 21
107.573
  0
LINE
  5
26C
100
AcDbEntity
  8
1
  6
CONTINUOUS
 62
    1
370
    5
100
AcDbLine
 10
186.551
 20
104.622
 11
186.551
 21
107.573
  0
LINE
  5
26D
100
AcDbEntity
  8
1
  6
CONTINUOUS
 62
    1
370
    5
100
AcDbLine
 10
180.989
 20
78.3717
 11
180.989
 21
79.37220000000001
  0
LINE
  5
26E
100
AcDbEntity
  8
1
  6
CONTINUOUS
 62
    1
370
    5
100
AcDbLine
 10
181.788
 20
78.3717
 11
180.989
 21
78.3717
  0
LINE
  5
26F
100
AcDbEntity
  8
1
  6
CONTINUOUS
 62
    1
370
    5
100
AcDbLine
 10
181.788
 20
75.42140000000001
 11
181.788
 21
78.3717
  0
LINE
  5
270
100
AcDbEntity
  8
1
  6
CONTINUOUS
 62
    1
370
    5
100
AcDbLine
 10
71.88800000000001
 20
126.15
 11
71.88800000000001
 21
125.149
  0
LINE
  5
271
100
AcDbEntity
  8
1
  6
CONTINUOUS
 62
    1
370
    5
100
AcDbLine
 10
71.089
 20
126.15
 11
71.88800000000001
 21
126.15
  0
LINE
  5
272
100
AcDbEntity
  8
1
  6
CONTINUOUS
 62
    1
370
    5
100
AcDbLine
 10
71.089
 20
129.099
 11
71.089
 21
126.15
  0
LINE
  5
273
100
AcDbEntity
  8
1
  6
CONTINUOUS
 62
    1
370
    5
100
AcDbLine
 10
161.939
 20
135.522
 11
161.939
 21
136.522
  0
LINE
  5
274
100
AcDbEntity
  8
1
  6
CONTINUOUS
 62
    1
370
    5
100
AcDbLine
 10
162.738
 20
135.522
 11
161.939
 21
135.522
  0
LINE
  5
275
100
AcDbEntity
  8
1
  6
CONTINUOUS
 62
    1
370
    5
100
AcDbLine
 10
162.738
 20
132.571
 11
162.738
 21
135.522
  0
LINE
  5
276
100
AcDbEntity
  8
1
  6
CONTINUOUS
 62
    1
370
    5
100
AcDbLine
 10
161.939
 20
122.671
 11
161.939
 21
123.672
  0
LINE
  5
277
100
AcDbEntity
  8
1
  6
CONTINUOUS
 62
    1
370
    5
100
AcDbLine
 10
148.088
 20
122.671
 11
161.939
 21
122.671
  0
LINE
  5
278
100
AcDbEntity
  8
1
  6
CONTINUOUS
 62
    1
370
    5
100
AcDbLine
 10
148.088
 20
123.672
 11
148.088
 21
122.671
  0
LINE
  5
279
100
AcDbEntity
  8
1
  6
CONTINUOUS
 62
    1
370
    5
100
AcDbLine
 10
171.901
 20
85.5719
 11
171.901
 21
84.5714
  0
LINE
  5
27A
100
AcDbEntity
  8
1
  6
CONTINUOUS
 62
    1
370
    5
100
AcDbLine
 10
171.1
 20
85.5719
 11
171.901
 21
85.5719
  0
LINE
  5
27B
100
AcDbEntity
  8
1
  6
CONTINUOUS
 62
    1
370
    5
100
AcDbLine
 10
171.1
 20
88.52249999999999
 11
171.1
 21
85.5719
  0
LINE
  5
27C
100
AcDbEntity
  8
1
  6
CONTINUOUS
 62
    1
370
    5
100
AcDbLine
 10
90.938
 20
102.186
 11
90.139
 21
102.186
  0
LINE
  5
27D
100
AcDbEntity
  8
1
  6
CONTINUOUS
 62
    1
370
    5
100
AcDbLine
 10
90.938
 20
103.185
 11
90.938
 21
102.186
  0
LINE
  5
27E
100
AcDbEntity
  8
1
  6
CONTINUOUS
 62
    1
370
    5
100
AcDbLine
 10
85.7388
 20
100.899
 11
71.88800000000001
 21
100.899
  0
LINE
  5
27F
100
AcDbEntity
  8
1
  6
CONTINUOUS
 62
    1
370
    5
100
AcDbLine
 10
147.289
 20
107.573
 11
147.289
 21
104.622
  0
LINE
  5
280
100
AcDbEntity
  8
1
  6
CONTINUOUS
 62
    1
370
    5
100
AcDbLine
 10
148.088
 20
107.573
 11
147.289
 21
107.573
  0
LINE
  5
281
100
AcDbEntity
  8
1
  6
CONTINUOUS
 62
    1
370
    5
100
AcDbLine
 10
148.088
 20
113.521
 11
148.088
 21
107.573
  0
LINE
  5
282
100
AcDbEntity
  8
1
  6
CONTINUOUS
 62
    1
370
    5
100
AcDbLine
 10
45.0081
 20
65.8467
 11
43.5335
 21
68.40179999999999
  0
LINE
  5
283
100
AcDbEntity
  8
1
  6
CONTINUOUS
 62
    1
370
    5
100
AcDbLine
 10
44.3163
 20
65.4473
 11
45.0081
 21
65.8467
  0
LINE
  5
284
100
AcDbEntity
  8
1
  6
CONTINUOUS
 62
    1
370
    5
100
AcDbLine
 10
47.2916
 20
60.2947
 11
44.3163
 21
65.4473
  0
LINE
  5
285
100
AcDbEntity
  8
1
  6
CONTINUOUS
 62
    1
370
    5
100
AcDbLine
 10
85.7388
 20
80.8496
 11
85.7388
 21
81.84869999999999
  0
LINE
  5
286
100
AcDbEntity
  8
1
  6
CONTINUOUS
 62
    1
370
    5
100
AcDbLine
 10
86.5382
 20
80.8496
 11
85.7388
 21
80.8496
  0
LINE
  5
287
100
AcDbEntity
  8
1
  6
CONTINUOUS
 62
    1
370
    5
100
AcDbLine
 10
86.5382
 20
77.899
 11
86.5382
 21
80.8496
  0
LINE
  5
288
100
AcDbEntity
  8
1
  6
CONTINUOUS
 62
    1
370
    5
100
AcDbLine
 10
123.839
 20
72.7604
 11
123.839
 21
73.76090000000001
  0
LINE
  5
289
100
AcDbEntity
  8
1
  6
CONTINUOUS
 62
    1
370
    5
100
AcDbLine
 10
109.988
 20
72.7604
 11
123.839
 21
72.7604
  0
LINE
  5
28A
100
AcDbEntity
  8
1
  6
CONTINUOUS
 62
    1
370
    5
100
AcDbLine
 10
109.988
 20
73.76090000000001
 11
109.988
 21
72.7604
  0
LINE
  5
28B
100
AcDbEntity
  8
1
  6
CONTINUOUS
 62
    1
370
    5
100
AcDbLine
 10
129.038
 20
80.1853
 11
129.038
 21
74.235
  0
LINE
  5
28C
100
AcDbEntity
  8
1
  6
CONTINUOUS
 62
    1
370
    5
100
AcDbLine
 10
128.239
 20
80.1853
 11
129.038
 21
80.1853
  0
LINE
  5
28D
100
AcDbEntity
  8
1
  6
CONTINUOUS
 62
    1
370
    5
100
AcDbLine
 10
65.7641
 20
66.3981
 11
65.26390000000001
 21
67.2634
  0
LINE
  5
28E
100
AcDbEntity
  8
1
  6
CONTINUOUS
 62
    1
370
    5
100
AcDbLine
 10
53.7697
 20
59.4734
 11
65.7641
 21
66.3981
  0
LINE
  5
28F
100
AcDbEntity
  8
1
  6
CONTINUOUS
 62
    1
370
    5
100
AcDbLine
 10
53.2694
 20
60.3388
 11
53.7697
 21
59.4734
  0
LINE
  5
290
100
AcDbEntity
  8
1
  6
CONTINUOUS
 62
    1
370
    5
100
AcDbLine
 10
52.5762
 20
59.9391
 11
53.2694
 21
60.3388
  0
LINE
  5
291
100
AcDbEntity
  8
1
  6
CONTINUOUS
 62
    1
370
    5
100
AcDbLine
 10
105.588
 20
109.384
 11
105.588
 21
112.335
  0
LINE
  5
292
100
AcDbEntity
  8
1
  6
CONTINUOUS
 62
    1
370
    5
100
AcDbLine
 10
104.789
 20
109.384
 11
105.588
 21
109.384
  0
LINE
  5
293
100
AcDbEntity
  8
1
  6
CONTINUOUS
 62
    1
370
    5
100
AcDbLine
 10
104.789
 20
108.385
 11
104.789
 21
109.384
  0
LINE
  5
294
100
AcDbEntity
  8
1
  6
CONTINUOUS
 62
    1
370
    5
100
AcDbLine
 10
90.938
 20
108.385
 11
104.789
 21
108.385
  0
LINE
  5
295
100
AcDbEntity
  8
1
  6
CONTINUOUS
 62
    1
370
    5
100
AcDbLine
 10
90.938
 20
109.384
 11
90.938
 21
108.385
  0
LINE
  5
296
100
AcDbEntity
  8
1
  6
CONTINUOUS
 62
    1
370
    5
100
AcDbLine
 10
105.588
 20
121.236
 11
104.789
 21
121.236
  0
LINE
  5
297
100
AcDbEntity
  8
1
  6
CONTINUOUS
 62
    1
370
    5
100
AcDbLine
 10
105.588
 20
118.285
 11
105.588
 21
121.236
  0
LINE
  5
298
100
AcDbEntity
  8
1
  6
CONTINUOUS
 62
    1
370
    5
100
AcDbLine
 10
104.789
 20
118.285
 11
105.588
 21
118.285
  0
LINE
  5
299
100
AcDbEntity
  8
1
  6
CONTINUOUS
 62
    1
370
    5
100
AcDbLine
 10
128.239
 20
71.28440000000001
 11
129.038
 21
71.28440000000001
  0
LINE
  5
29A
100
AcDbEntity
  8
1
  6
CONTINUOUS
 62
    1
370
    5
100
AcDbLine
 10
128.239
 20
74.235
 11
128.239
 21
71.28440000000001
  0
LINE
  5
29B
100
AcDbEntity
  8
1
  6
CONTINUOUS
 62
    1
370
    5
100
AcDbLine
 10
129.038
 20
74.235
 11
128.239
 21
74.235
  0
LINE
  5
29C
100
AcDbEntity
  8
1
  6
CONTINUOUS
 62
    1
370
    5
100
AcDbLine
 10
123.839
 20
63.6115
 11
124.638
 21
63.6115
  0
LINE
  5
29D
100
AcDbEntity
  8
1
  6
CONTINUOUS
 62
    1
370
    5
100
AcDbLine
 10
123.839
 20
57.6612
 11
123.839
 21
63.6115
  0
LINE
  5
29E
100
AcDbEntity
  8
1
  6
CONTINUOUS
 62
    1
370
    5
100
AcDbLine
 10
124.638
 20
57.6612
 11
123.839
 21
57.6612
  0
LINE
  5
29F
100
AcDbEntity
  8
1
  6
CONTINUOUS
 62
    1
370
    5
100
AcDbLine
 10
46.652
 20
70.20140000000001
 11
48.1266
 21
67.6465
  0
LINE
  5
2A0
100
AcDbEntity
  8
1
  6
CONTINUOUS
 62
    1
370
    5
100
AcDbLine
 10
47.3438
 20
70.60250000000001
 11
46.652
 21
70.20140000000001
  0
LINE
  5
2A1
100
AcDbEntity
  8
1
  6
CONTINUOUS
 62
    1
370
    5
100
AcDbLine
 10
51.7948
 20
62.8936
 11
51.1016
 21
62.4939
  0
LINE
  5
2A2
100
AcDbEntity
  8
1
  6
CONTINUOUS
 62
    1
370
    5
100
AcDbLine
 10
48.8199
 20
68.04770000000001
 11
51.7948
 21
62.8936
  0
LINE
  5
2A3
100
AcDbEntity
  8
1
  6
CONTINUOUS
 62
    1
370
    5
100
AcDbLine
 10
48.1266
 20
67.6465
 11
48.8199
 21
68.04770000000001
  0
LINE
  5
2A4
100
AcDbEntity
  8
1
  6
CONTINUOUS
 62
    1
370
    5
100
AcDbLine
 10
59.5161
 20
37.1203
 11
59.115
 21
37.8135
  0
LINE
  5
2A5
100
AcDbEntity
  8
1
  6
CONTINUOUS
 62
    1
370
    5
100
AcDbLine
 10
56.9599
 20
35.6457
 11
59.5161
 21
37.1203
  0
LINE
  5
2A6
100
AcDbEntity
  8
1
  6
CONTINUOUS
 62
    1
370
    5
100
AcDbLine
 10
56.5602
 20
36.3375
 11
56.9599
 21
35.6457
  0
LINE
  5
2A7
100
AcDbEntity
  8
1
  6
CONTINUOUS
 62
    1
370
    5
100
AcDbLine
 10
48.8527
 20
31.8878
 11
49.2538
 21
31.1947
  0
LINE
  5
2A8
100
AcDbEntity
  8
1
  6
CONTINUOUS
 62
    1
370
    5
100
AcDbLine
 10
47.9873
 20
31.3876
 11
48.8527
 21
31.8878
  0
LINE
  5
2A9
100
AcDbEntity
  8
1
  6
CONTINUOUS
 62
    1
370
    5
100
AcDbLine
 10
41.0626
 20
43.3836
 11
47.9873
 21
31.3876
  0
LINE
  5
2AA
100
AcDbEntity
  8
1
  6
CONTINUOUS
 62
    1
370
    5
100
AcDbLine
 10
41.9283
 20
43.8838
 11
41.0626
 21
43.3836
  0
LINE
  5
2AB
100
AcDbEntity
  8
1
  6
CONTINUOUS
 62
    1
370
    5
100
AcDbLine
 10
148.088
 20
69.4725
 11
147.289
 21
69.4725
  0
LINE
  5
2AC
100
AcDbEntity
  8
1
  6
CONTINUOUS
 62
    1
370
    5
100
AcDbLine
 10
148.088
 20
75.42140000000001
 11
148.088
 21
69.4725
  0
LINE
  5
2AD
100
AcDbEntity
  8
1
  6
CONTINUOUS
 62
    1
370
    5
100
AcDbLine
 10
147.289
 20
75.42140000000001
 11
148.088
 21
75.42140000000001
  0
LINE
  5
2AE
100
AcDbEntity
  8
1
  6
CONTINUOUS
 62
    1
370
    5
100
AcDbLine
 10
167.138
 20
75.42140000000001
 11
167.138
 21
69.4725
  0
LINE
  5
2AF
100
AcDbEntity
  8
1
  6
CONTINUOUS
 62
    1
370
    5
100
AcDbLine
 10
166.339
 20
75.42140000000001
 11
167.138
 21
75.42140000000001
  0
LINE
  5
2B0
100
AcDbEntity
  8
1
  6
CONTINUOUS
 62
    1
370
    5
100
AcDbLine
 10
180.989
 20
47.4719
 11
181.788
 21
47.4719
  0
LINE
  5
2B1
100
AcDbEntity
  8
1
  6
CONTINUOUS
 62
    1
370
    5
100
AcDbLine
 10
180.989
 20
46.4714
 11
180.989
 21
47.4719
  0
LINE
  5
2B2
100
AcDbEntity
  8
1
  6
CONTINUOUS
 62
    1
370
    5
100
AcDbLine
 10
167.138
 20
46.4714
 11
180.989
 21
46.4714
  0
LINE
  5
2B3
100
AcDbEntity
  8
1
  6
CONTINUOUS
 62
    1
370
    5
100
AcDbLine
 10
180.989
 20
56.3714
 11
181.788
 21
56.3714
  0
LINE
  5
2B4
100
AcDbEntity
  8
1
  6
CONTINUOUS
 62
    1
370
    5
100
AcDbLine
 10
180.989
 20
50.4225
 11
180.989
 21
56.3714
  0
LINE
  5
2B5
100
AcDbEntity
  8
1
  6
CONTINUOUS
 62
    1
370
    5
100
AcDbLine
 10
181.788
 20
50.4225
 11
180.989
 21
50.4225
  0
LINE
  5
2B6
100
AcDbEntity
  8
1
  6
CONTINUOUS
 62
    1
370
    5
100
AcDbLine
 10
42.4448
 20
22.6894
 11
42.8445
 21
21.9963
  0
LINE
  5
2B7
100
AcDbEntity
  8
1
  6
CONTINUOUS
 62
    1
370
    5
100
AcDbLine
 10
37.2911
 20
19.7142
 11
42.4448
 21
22.6894
  0
LINE
  5
2B8
100
AcDbEntity
  8
1
  6
CONTINUOUS
 62
    1
370
    5
100
AcDbLine
 10
37.6922
 20
19.0211
 11
37.2911
 21
19.7142
  0
LINE
  5
2B9
100
AcDbEntity
  8
1
  6
CONTINUOUS
 62
    1
370
    5
100
AcDbLine
 10
51.791
 20
50.4994
 11
49.2358
 21
49.0252
  0
LINE
  5
2BA
100
AcDbEntity
  8
1
  6
CONTINUOUS
 62
    1
370
    5
100
AcDbLine
 10
52.1903
 20
49.808
 11
51.791
 21
50.4994
  0
LINE
  5
2BB
100
AcDbEntity
  8
1
  6
CONTINUOUS
 62
    1
370
    5
100
AcDbLine
 10
53.056
 20
50.3079
 11
52.1903
 21
49.808
  0
LINE
  5
2BC
100
AcDbEntity
  8
1
  6
CONTINUOUS
 62
    1
370
    5
100
AcDbLine
 10
21.9645
 20
38.3603
 11
22.8299
 21
38.8606
  0
LINE
  5
2BD
100
AcDbEntity
  8
1
  6
CONTINUOUS
 62
    1
370
    5
100
AcDbLine
 10
15.0399
 20
50.3548
 11
21.9645
 21
38.3603
  0
LINE
  5
2BE
100
AcDbEntity
  8
1
  6
CONTINUOUS
 62
    1
370
    5
100
AcDbLine
 10
15.9053
 20
50.855
 11
15.0399
 21
50.3548
  0
LINE
  5
2BF
100
AcDbEntity
  8
1
  6
CONTINUOUS
 62
    1
370
    5
100
AcDbLine
 10
26.9462
 20
29.7326
 11
33.8708
 21
17.7395
  0
LINE
  5
2C0
100
AcDbEntity
  8
1
  6
CONTINUOUS
 62
    1
370
    5
100
AcDbLine
 10
27.8102
 20
30.2328
 11
26.9462
 21
29.7326
  0
LINE
  5
2C1
100
AcDbEntity
  8
1
  6
CONTINUOUS
 62
    1
370
    5
100
AcDbLine
 10
27.4119
 20
30.9259
 11
27.8102
 21
30.2328
  0
LINE
  5
2C2
100
AcDbEntity
  8
1
  6
CONTINUOUS
 62
    1
370
    5
100
AcDbLine
 10
128.239
 20
112.335
 11
128.239
 21
109.384
  0
LINE
  5
2C3
100
AcDbEntity
  8
1
  6
CONTINUOUS
 62
    1
370
    5
100
AcDbLine
 10
129.038
 20
112.335
 11
128.239
 21
112.335
  0
LINE
  5
2C4
100
AcDbEntity
  8
1
  6
CONTINUOUS
 62
    1
370
    5
100
AcDbLine
 10
129.038
 20
118.285
 11
129.038
 21
112.335
  0
LINE
  5
2C5
100
AcDbEntity
  8
1
  6
CONTINUOUS
 62
    1
370
    5
100
AcDbLine
 10
148.088
 20
98.4222
 11
148.088
 21
97.4217
  0
LINE
  5
2C6
100
AcDbEntity
  8
1
  6
CONTINUOUS
 62
    1
370
    5
100
AcDbLine
 10
123.839
 20
86.6112
 11
109.988
 21
86.6112
  0
LINE
  5
2C7
100
AcDbEntity
  8
1
  6
CONTINUOUS
 62
    1
370
    5
100
AcDbLine
 10
123.839
 20
85.61069999999999
 11
123.839
 21
86.6112
  0
LINE
  5
2C8
100
AcDbEntity
  8
1
  6
CONTINUOUS
 62
    1
370
    5
100
AcDbLine
 10
124.638
 20
114.811
 11
123.839
 21
114.811
  0
LINE
  5
2C9
100
AcDbEntity
  8
1
  6
CONTINUOUS
 62
    1
370
    5
100
AcDbLine
 10
124.638
 20
111.861
 11
124.638
 21
114.811
  0
LINE
  5
2CA
100
AcDbEntity
  8
1
  6
CONTINUOUS
 62
    1
370
    5
100
AcDbLine
 10
123.839
 20
111.861
 11
124.638
 21
111.861
  0
LINE
  5
2CB
100
AcDbEntity
  8
1
  6
CONTINUOUS
 62
    1
370
    5
100
AcDbLine
 10
109.189
 20
123.711
 11
109.189
 21
120.761
  0
LINE
  5
2CC
100
AcDbEntity
  8
1
  6
CONTINUOUS
 62
    1
370
    5
100
AcDbLine
 10
109.988
 20
123.711
 11
109.189
 21
123.711
  0
LINE
  5
2CD
100
AcDbEntity
  8
1
  6
CONTINUOUS
 62
    1
370
    5
100
AcDbLine
 10
109.988
 20
124.711
 11
109.988
 21
123.711
  0
LINE
  5
2CE
100
AcDbEntity
  8
1
  6
CONTINUOUS
 62
    1
370
    5
100
AcDbLine
 10
109.189
 20
114.811
 11
109.189
 21
111.861
  0
LINE
  5
2CF
100
AcDbEntity
  8
1
  6
CONTINUOUS
 62
    1
370
    5
100
AcDbLine
 10
109.988
 20
114.811
 11
109.189
 21
114.811
  0
LINE
  5
2D0
100
AcDbEntity
  8
1
  6
CONTINUOUS
 62
    1
370
    5
100
AcDbLine
 10
109.988
 20
120.761
 11
109.988
 21
114.811
  0
LINE
  5
2D1
100
AcDbEntity
  8
1
  6
CONTINUOUS
 62
    1
370
    5
100
AcDbLine
 10
123.839
 20
110.86
 11
123.839
 21
111.861
  0
LINE
  5
2D2
100
AcDbEntity
  8
1
  6
CONTINUOUS
 62
    1
370
    5
100
AcDbLine
 10
109.988
 20
110.86
 11
123.839
 21
110.86
  0
LINE
  5
2D3
100
AcDbEntity
  8
1
  6
CONTINUOUS
 62
    1
370
    5
100
AcDbLine
 10
109.988
 20
111.861
 11
109.988
 21
110.86
  0
LINE
  5
2D4
100
AcDbEntity
  8
1
  6
CONTINUOUS
 62
    1
370
    5
100
AcDbLine
 10
166.339
 20
66.5219
 11
167.138
 21
66.5219
  0
LINE
  5
2D5
100
AcDbEntity
  8
1
  6
CONTINUOUS
 62
    1
370
    5
100
AcDbLine
 10
166.339
 20
69.4725
 11
166.339
 21
66.5219
  0
LINE
  5
2D6
100
AcDbEntity
  8
1
  6
CONTINUOUS
 62
    1
370
    5
100
AcDbLine
 10
167.138
 20
69.4725
 11
166.339
 21
69.4725
  0
LINE
  5
2D7
100
AcDbEntity
  8
1
  6
CONTINUOUS
 62
    1
370
    5
100
AcDbLine
 10
161.939
 20
65.5214
 11
161.939
 21
66.5219
  0
LINE
  5
2D8
100
AcDbEntity
  8
1
  6
CONTINUOUS
 62
    1
370
    5
100
AcDbLine
 10
162.738
 20
69.4725
 11
161.939
 21
69.4725
  0
LINE
  5
2D9
100
AcDbEntity
  8
1
  6
CONTINUOUS
 62
    1
370
    5
100
AcDbLine
 10
162.738
 20
66.5219
 11
162.738
 21
69.4725
  0
LINE
  5
2DA
100
AcDbEntity
  8
1
  6
CONTINUOUS
 62
    1
370
    5
100
AcDbLine
 10
161.939
 20
66.5219
 11
162.738
 21
66.5219
  0
LINE
  5
2DB
100
AcDbEntity
  8
1
  6
CONTINUOUS
 62
    1
370
    5
100
AcDbLine
 10
129.038
 20
140.286
 11
128.239
 21
140.286
  0
LINE
  5
2DC
100
AcDbEntity
  8
1
  6
CONTINUOUS
 62
    1
370
    5
100
AcDbLine
 10
129.038
 20
141.285
 11
129.038
 21
140.286
  0
LINE
  5
2DD
100
AcDbEntity
  8
1
  6
CONTINUOUS
 62
    1
370
    5
100
AcDbLine
 10
104.789
 20
140.286
 11
104.789
 21
141.285
  0
LINE
  5
2DE
100
AcDbEntity
  8
1
  6
CONTINUOUS
 62
    1
370
    5
100
AcDbLine
 10
105.588
 20
140.286
 11
104.789
 21
140.286
  0
LINE
  5
2DF
100
AcDbEntity
  8
1
  6
CONTINUOUS
 62
    1
370
    5
100
AcDbLine
 10
105.588
 20
137.335
 11
105.588
 21
140.286
  0
LINE
  5
2E0
100
AcDbEntity
  8
1
  6
CONTINUOUS
 62
    1
370
    5
100
AcDbLine
 10
143.688
 20
140.286
 11
142.889
 21
140.286
  0
LINE
  5
2E1
100
AcDbEntity
  8
1
  6
CONTINUOUS
 62
    1
370
    5
100
AcDbLine
 10
129.038
 20
137.335
 11
129.038
 21
131.385
  0
LINE
  5
2E2
100
AcDbEntity
  8
1
  6
CONTINUOUS
 62
    1
370
    5
100
AcDbLine
 10
128.239
 20
137.335
 11
129.038
 21
137.335
  0
LINE
  5
2E3
100
AcDbEntity
  8
1
  6
CONTINUOUS
 62
    1
370
    5
100
AcDbLine
 10
128.239
 20
140.286
 11
128.239
 21
137.335
  0
LINE
  5
2E4
100
AcDbEntity
  8
1
  6
CONTINUOUS
 62
    1
370
    5
100
AcDbLine
 10
90.139
 20
131.385
 11
90.139
 21
128.434
  0
LINE
  5
2E5
100
AcDbEntity
  8
1
  6
CONTINUOUS
 62
    1
370
    5
100
AcDbLine
 10
142.889
 20
140.286
 11
142.889
 21
141.285
  0
LINE
  5
2E6
100
AcDbEntity
  8
1
  6
CONTINUOUS
 62
    1
370
    5
100
AcDbLine
 10
69.29000000000001
 20
147.3711
 11
109.29
 21
147.3711
  0
LINE
  5
2E7
100
AcDbEntity
  8
1
  6
CONTINUOUS
 62
    1
370
    5
100
AcDbLine
 10
123.839
 20
143.761
 11
109.988
 21
143.761
  0
LINE
  5
2E8
100
AcDbEntity
  8
1
  6
CONTINUOUS
 62
    1
370
    5
100
AcDbLine
 10
123.839
 20
129.91
 11
123.839
 21
130.911
  0
LINE
  5
2E9
100
AcDbEntity
  8
1
  6
CONTINUOUS
 62
    1
370
    5
100
AcDbLine
 10
109.988
 20
129.91
 11
123.839
 21
129.91
  0
LINE
  5
2EA
100
AcDbEntity
  8
1
  6
CONTINUOUS
 62
    1
370
    5
100
AcDbLine
 10
109.988
 20
130.911
 11
109.988
 21
129.91
  0
LINE
  5
2EB
100
AcDbEntity
  8
1
  6
CONTINUOUS
 62
    1
370
    5
100
AcDbLine
 10
143.688
 20
137.335
 11
143.688
 21
140.286
  0
LINE
  5
2EC
100
AcDbEntity
  8
1
  6
CONTINUOUS
 62
    1
370
    5
100
AcDbLine
 10
142.889
 20
137.335
 11
143.688
 21
137.335
  0
LINE
  5
2ED
100
AcDbEntity
  8
1
  6
CONTINUOUS
 62
    1
370
    5
100
AcDbLine
 10
142.889
 20
131.385
 11
142.889
 21
137.335
  0
LINE
  5
2EE
100
AcDbEntity
  8
1
  6
CONTINUOUS
 62
    1
370
    5
100
AcDbLine
 10
109.988
 20
143.761
 11
109.988
 21
142.761
  0
LINE
  5
2EF
100
AcDbEntity
  8
1
  6
CONTINUOUS
 62
    1
370
    5
100
AcDbLine
 10
142.889
 20
141.285
 11
129.038
 21
141.285
  0
LINE
  5
2F0
100
AcDbEntity
  8
1
  6
CONTINUOUS
 62
    1
370
    5
100
AcDbLine
 10
90.938
 20
140.286
 11
90.139
 21
140.286
  0
LINE
  5
2F1
100
AcDbEntity
  8
1
  6
CONTINUOUS
 62
    1
370
    5
100
AcDbLine
 10
90.938
 20
131.385
 11
90.139
 21
131.385
  0
LINE
  5
2F2
100
AcDbEntity
  8
1
  6
CONTINUOUS
 62
    1
370
    5
100
AcDbLine
 10
90.938
 20
137.335
 11
90.938
 21
131.385
  0
LINE
  5
2F3
100
AcDbEntity
  8
1
  6
CONTINUOUS
 62
    1
370
    5
100
AcDbLine
 10
90.139
 20
137.335
 11
90.938
 21
137.335
  0
LINE
  5
2F4
100
AcDbEntity
  8
1
  6
CONTINUOUS
 62
    1
370
    5
100
AcDbLine
 10
90.139
 20
140.286
 11
90.139
 21
137.335
  0
LINE
  5
2F5
100
AcDbEntity
  8
1
  6
CONTINUOUS
 62
    1
370
    5
100
AcDbLine
 10
142.889
 20
128.434
 11
143.688
 21
128.434
  0
LINE
  5
2F6
100
AcDbEntity
  8
1
  6
CONTINUOUS
 62
    1
370
    5
100
AcDbLine
 10
142.889
 20
127.435
 11
142.889
 21
128.434
  0
LINE
  5
2F7
100
AcDbEntity
  8
1
  6
CONTINUOUS
 62
    1
370
    5
100
AcDbLine
 10
129.038
 20
127.435
 11
142.889
 21
127.435
  0
LINE
  5
2F8
100
AcDbEntity
  8
1
  6
CONTINUOUS
 62
    1
370
    5
100
AcDbLine
 10
109.189
 20
130.911
 11
109.988
 21
130.911
  0
LINE
  5
2F9
100
AcDbEntity
  8
1
  6
CONTINUOUS
 62
    1
370
    5
100
AcDbLine
 10
109.189
 20
133.861
 11
109.189
 21
130.911
  0
LINE
  5
2FA
100
AcDbEntity
  8
1
  6
CONTINUOUS
 62
    1
370
    5
100
AcDbLine
 10
109.988
 20
133.861
 11
109.189
 21
133.861
  0
LINE
  5
2FB
100
AcDbEntity
  8
1
  6
CONTINUOUS
 62
    1
370
    5
100
AcDbLine
 10
123.839
 20
139.811
 11
124.638
 21
139.811
  0
LINE
  5
2FC
100
AcDbEntity
  8
1
  6
CONTINUOUS
 62
    1
370
    5
100
AcDbLine
 10
123.839
 20
133.861
 11
123.839
 21
139.811
  0
LINE
  5
2FD
100
AcDbEntity
  8
1
  6
CONTINUOUS
 62
    1
370
    5
100
AcDbLine
 10
124.638
 20
133.861
 11
123.839
 21
133.861
  0
LINE
  5
2FE
100
AcDbEntity
  8
1
  6
CONTINUOUS
 62
    1
370
    5
100
AcDbLine
 10
90.938
 20
127.435
 11
104.789
 21
127.435
  0
LINE
  5
2FF
100
AcDbEntity
  8
1
  6
CONTINUOUS
 62
    1
370
    5
100
AcDbLine
 10
90.938
 20
128.434
 11
90.938
 21
127.435
  0
LINE
  5
300
100
AcDbEntity
  8
1
  6
CONTINUOUS
 62
    1
370
    5
100
AcDbLine
 10
90.139
 20
128.434
 11
90.938
 21
128.434
  0
LINE
  5
301
100
AcDbEntity
  8
1
  6
CONTINUOUS
 62
    1
370
    5
100
AcDbLine
 10
109.189
 20
139.811
 11
109.988
 21
139.811
  0
LINE
  5
302
100
AcDbEntity
  8
1
  6
CONTINUOUS
 62
    1
370
    5
100
AcDbLine
 10
109.189
 20
142.761
 11
109.189
 21
139.811
  0
LINE
  5
303
100
AcDbEntity
  8
1
  6
CONTINUOUS
 62
    1
370
    5
100
AcDbLine
 10
109.988
 20
142.761
 11
109.189
 21
142.761
  0
LINE
  5
304
100
AcDbEntity
  8
1
  6
CONTINUOUS
 62
    1
370
    5
100
AcDbLine
 10
123.839
 20
142.761
 11
123.839
 21
143.761
  0
LINE
  5
305
100
AcDbEntity
  8
1
  6
CONTINUOUS
 62
    1
370
    5
100
AcDbLine
 10
124.638
 20
142.761
 11
123.839
 21
142.761
  0
LINE
  5
306
100
AcDbEntity
  8
1
  6
CONTINUOUS
 62
    1
370
    5
100
AcDbLine
 10
124.638
 20
139.811
 11
124.638
 21
142.761
  0
LINE
  5
307
100
AcDbEntity
  8
1
  6
CONTINUOUS
 62
    1
370
    5
100
AcDbLine
 10
104.789
 20
131.385
 11
104.789
 21
137.335
  0
LINE
  5
308
100
AcDbEntity
  8
1
  6
CONTINUOUS
 62
    1
370
    5
100
AcDbLine
 10
105.588
 20
131.385
 11
104.789
 21
131.385
  0
LINE
  5
309
100
AcDbEntity
  8
1
  6
CONTINUOUS
 62
    1
370
    5
100
AcDbLine
 10
105.588
 20
128.434
 11
105.588
 21
131.385
  0
LINE
  5
30A
100
AcDbEntity
  8
1
  6
CONTINUOUS
 62
    1
370
    5
100
AcDbLine
 10
166.339
 20
78.3717
 11
166.339
 21
75.42140000000001
  0
LINE
  5
30B
100
AcDbEntity
  8
1
  6
CONTINUOUS
 62
    1
370
    5
100
AcDbLine
 10
167.138
 20
78.3717
 11
166.339
 21
78.3717
  0
LINE
  5
30C
100
AcDbEntity
  8
1
  6
CONTINUOUS
 62
    1
370
    5
100
AcDbLine
 10
167.138
 20
79.37220000000001
 11
167.138
 21
78.3717
  0
LINE
  5
30D
100
AcDbEntity
  8
1
  6
CONTINUOUS
 62
    1
370
    5
100
AcDbLine
 10
142.889
 20
93.285
 11
142.889
 21
99.2353
  0
LINE
  5
30E
100
AcDbEntity
  8
1
  6
CONTINUOUS
 62
    1
370
    5
100
AcDbLine
 10
143.688
 20
93.285
 11
142.889
 21
93.285
  0
LINE
  5
30F
100
AcDbEntity
  8
1
  6
CONTINUOUS
 62
    1
370
    5
100
AcDbLine
 10
142.889
 20
90.3344
 11
143.688
 21
90.3344
  0
LINE
  5
310
100
AcDbEntity
  8
1
  6
CONTINUOUS
 62
    1
370
    5
100
AcDbLine
 10
142.889
 20
89.3353
 11
142.889
 21
90.3344
  0
LINE
  5
311
100
AcDbEntity
  8
1
  6
CONTINUOUS
 62
    1
370
    5
100
AcDbLine
 10
129.038
 20
89.3353
 11
142.889
 21
89.3353
  0
LINE
  5
312
100
AcDbEntity
  8
1
  6
CONTINUOUS
 62
    1
370
    5
100
AcDbLine
 10
143.688
 20
102.186
 11
142.889
 21
102.186
  0
LINE
  5
313
100
AcDbEntity
  8
1
  6
CONTINUOUS
 62
    1
370
    5
100
AcDbLine
 10
143.688
 20
99.2353
 11
143.688
 21
102.186
  0
LINE
  5
314
100
AcDbEntity
  8
1
  6
CONTINUOUS
 62
    1
370
    5
100
AcDbLine
 10
142.889
 20
99.2353
 11
143.688
 21
99.2353
  0
LINE
  5
315
100
AcDbEntity
  8
1
  6
CONTINUOUS
 62
    1
370
    5
100
AcDbLine
 10
63.7879
 20
69.8197
 11
60.8129
 21
74.9723
  0
LINE
  5
316
100
AcDbEntity
  8
1
  6
CONTINUOUS
 62
    1
370
    5
100
AcDbLine
 10
64.4811
 20
70.21939999999999
 11
63.7879
 21
69.8197
  0
LINE
  5
317
100
AcDbEntity
  8
1
  6
CONTINUOUS
 62
    1
370
    5
100
AcDbLine
 10
65.9571
 20
67.6645
 11
64.4811
 21
70.21939999999999
  0
LINE
  5
318
100
AcDbEntity
  8
1
  6
CONTINUOUS
 62
    1
370
    5
100
AcDbLine
 10
101.29
 20
170.3711
 11
109.29
 21
170.3711
  0
LINE
  5
319
100
AcDbEntity
  8
1
  6
CONTINUOUS
 62
    1
370
    5
100
AcDbLine
 10
118.29
 20
170.3711
 11
118.29
 21
147.3711
  0
LINE
  5
31A
100
AcDbEntity
  8
1
  6
CONTINUOUS
 62
    1
370
    5
100
AcDbLine
 10
109.29
 20
170.3711
 11
109.29
 21
147.3711
  0
LINE
  5
31B
100
AcDbEntity
  8
1
  6
CONTINUOUS
 62
    1
370
    5
100
AcDbLine
 10
120.29
 20
173.3711
 11
120.94
 21
173.3711
  0
LINE
  5
31C
100
AcDbEntity
  8
1
  6
CONTINUOUS
 62
    1
370
    5
100
AcDbLine
 10
131.64
 20
175.3711
 11
131.64
 21
173.3711
  0
LINE
  5
31D
100
AcDbEntity
  8
1
  6
CONTINUOUS
 62
    1
370
    5
100
AcDbLine
 10
120.94
 20
175.3711
 11
120.94
 21
173.3711
  0
LINE
  5
31E
100
AcDbEntity
  8
1
  6
CONTINUOUS
 62
    1
370
    5
100
AcDbLine
 10
84.29000000000001
 20
173.3711
 11
89.11499999999999
 21
173.3711
  0
LINE
  5
31F
100
AcDbEntity
  8
1
  6
CONTINUOUS
 62
    1
370
    5
100
AcDbLine
 10
96.465
 20
175.3711
 11
96.465
 21
173.3711
  0
LINE
  5
320
100
AcDbEntity
  8
1
  6
CONTINUOUS
 62
    1
370
    5
100
AcDbLine
 10
89.11499999999999
 20
175.3711
 11
89.11499999999999
 21
173.3711
  0
LINE
  5
321
100
AcDbEntity
  8
1
  6
CONTINUOUS
 62
    1
370
    5
100
AcDbLine
 10
69.29000000000001
 20
170.3711
 11
69.29000000000001
 21
147.3711
  0
LINE
  5
322
100
AcDbEntity
  8
1
  6
CONTINUOUS
 62
    1
370
    5
100
AcDbLine
 10
193.480007
 20
170.3711
 11
193.480007
 21
147.3711
  0
LINE
  5
323
100
AcDbEntity
  8
1
  6
CONTINUOUS
 62
    1
370
    5
100
AcDbLine
 10
118.29
 20
147.3711
 11
193.480007
 21
147.3711
  0
LINE
  5
324
100
AcDbEntity
  8
1
  6
CONTINUOUS
 62
    1
370
    5
100
AcDbLine
 10
6.717482
 20
53.633237
 11
6.717482
 21
56.231313
  0
LINE
  5
325
100
AcDbEntity
  8
1
  6
CONTINUOUS
 62
    1
370
    5
100
AcDbLine
 10
4.467482
 20
52.334199
 11
6.717482
 21
53.633237
  0
LINE
  5
326
100
AcDbEntity
  8
1
  6
CONTINUOUS
 62
    1
370
    5
100
AcDbLine
 10
2.217482
 20
53.633237
 11
4.467482
 21
52.334199
  0
LINE
  5
327
100
AcDbEntity
  8
1
  6
CONTINUOUS
 62
    1
370
    5
100
AcDbLine
 10
2.217482
 20
56.231313
 11
2.217482
 21
53.633237
  0
LINE
  5
328
100
AcDbEntity
  8
1
  6
CONTINUOUS
 62
    1
370
    5
100
AcDbLine
 10
4.467482
 20
57.530352
 11
2.217482
 21
56.231313
  0
LINE
  5
329
100
AcDbEntity
  8
1
  6
CONTINUOUS
 62
    1
370
    5
100
AcDbLine
 10
6.717482
 20
56.231313
 11
4.467482
 21
57.530352
  0
LINE
  5
32A
100
AcDbEntity
  8
1
  6
CONTINUOUS
 62
    1
370
    5
100
AcDbLine
 10
34.7972
 20
4.995143
 11
34.7972
 21
7.593219
  0
LINE
  5
32B
100
AcDbEntity
  8
1
  6
CONTINUOUS
 62
    1
370
    5
100
AcDbLine
 10
32.5472
 20
3.696104
 11
34.7972
 21
4.995143
  0
LINE
  5
32C
100
AcDbEntity
  8
1
  6
CONTINUOUS
 62
    1
370
    5
100
AcDbLine
 10
30.2972
 20
4.995143
 11
32.5472
 21
3.696104
  0
LINE
  5
32D
100
AcDbEntity
  8
1
  6
CONTINUOUS
 62
    1
370
    5
100
AcDbLine
 10
30.2972
 20
7.593219
 11
30.2972
 21
4.995143
  0
LINE
  5
32E
100
AcDbEntity
  8
1
  6
CONTINUOUS
 62
    1
370
    5
100
AcDbLine
 10
32.5472
 20
8.892257000000001
 11
30.2972
 21
7.593219
  0
LINE
  5
32F
100
AcDbEntity
  8
1
  6
CONTINUOUS
 62
    1
370
    5
100
AcDbLine
 10
34.7972
 20
7.593219
 11
32.5472
 21
8.892257000000001
  0
LINE
  5
330
100
AcDbEntity
  8
1
  6
CONTINUOUS
 62
    1
370
    5
100
AcDbLine
 10
92.706531
 20
37.48579
 11
92.706531
 21
40.083866
  0
LINE
  5
331
100
AcDbEntity
  8
1
  6
CONTINUOUS
 62
    1
370
    5
100
AcDbLine
 10
90.456531
 20
36.186751
 11
92.706531
 21
37.48579
  0
LINE
  5
332
100
AcDbEntity
  8
1
  6
CONTINUOUS
 62
    1
370
    5
100
AcDbLine
 10
88.206531
 20
37.48579
 11
90.456531
 21
36.186751
  0
LINE
  5
333
100
AcDbEntity
  8
1
  6
CONTINUOUS
 62
    1
370
    5
100
AcDbLine
 10
88.206531
 20
40.083866
 11
88.206531
 21
37.48579
  0
LINE
  5
334
100
AcDbEntity
  8
1
  6
CONTINUOUS
 62
    1
370
    5
100
AcDbLine
 10
90.456531
 20
41.382904
 11
88.206531
 21
40.083866
  0
LINE
  5
335
100
AcDbEntity
  8
1
  6
CONTINUOUS
 62
    1
370
    5
100
AcDbLine
 10
92.706531
 20
40.083866
 11
90.456531
 21
41.382904
  0
LINE
  5
336
100
AcDbEntity
  8
1
  6
CONTINUOUS
 62
    1
370
    5
100
AcDbLine
 10
199.997774
 20
40.901287
 11
197.747774
 21
42.200325
  0
LINE
  5
337
100
AcDbEntity
  8
1
  6
CONTINUOUS
 62
    1
370
    5
100
AcDbLine
 10
199.997774
 20
173.339829
 11
199.997774
 21
175.937905
  0
LINE
  5
338
100
AcDbEntity
  8
1
  6
CONTINUOUS
 62
    1
370
    5
100
AcDbLine
 10
197.747774
 20
172.040791
 11
199.997774
 21
173.339829
  0
LINE
  5
339
100
AcDbEntity
  8
1
  6
CONTINUOUS
 62
    1
370
    5
100
AcDbLine
 10
195.497774
 20
173.339829
 11
197.747774
 21
172.040791
  0
LINE
  5
33A
100
AcDbEntity
  8
1
  6
CONTINUOUS
 62
    1
370
    5
100
AcDbLine
 10
195.497774
 20
175.937905
 11
195.497774
 21
173.339829
  0
LINE
  5
33B
100
AcDbEntity
  8
1
  6
CONTINUOUS
 62
    1
370
    5
100
AcDbLine
 10
197.747774
 20
177.236943
 11
195.497774
 21
175.937905
  0
LINE
  5
33C
100
AcDbEntity
  8
1
  6
CONTINUOUS
 62
    1
370
    5
100
AcDbLine
 10
199.997774
 20
175.937905
 11
197.747774
 21
177.236943
  0
LINE
  5
33D
100
AcDbEntity
  8
1
  6
CONTINUOUS
 62
    1
370
    5
100
AcDbLine
 10
67.272233
 20
173.339829
 11
67.272233
 21
175.937905
  0
LINE
  5
33E
100
AcDbEntity
  8
1
  6
CONTINUOUS
 62
    1
370
    5
100
AcDbLine
 10
65.022233
 20
172.040791
 11
67.272233
 21
173.339829
  0
LINE
  5
33F
100
AcDbEntity
  8
1
  6
CONTINUOUS
 62
    1
370
    5
100
AcDbLine
 10
62.772233
 20
173.339829
 11
65.022233
 21
172.040791
  0
LINE
  5
340
100
AcDbEntity
  8
1
  6
CONTINUOUS
 62
    1
370
    5
100
AcDbLine
 10
62.772233
 20
175.937905
 11
62.772233
 21
173.339829
  0
LINE
  5
341
100
AcDbEntity
  8
1
  6
CONTINUOUS
 62
    1
370
    5
100
AcDbLine
 10
65.022233
 20
177.236943
 11
62.772233
 21
175.937905
  0
LINE
  5
342
100
AcDbEntity
  8
1
  6
CONTINUOUS
 62
    1
370
    5
100
AcDbLine
 10
67.272233
 20
175.937905
 11
65.022233
 21
177.236943
  0
LINE
  5
343
100
AcDbEntity
  8
1
  6
CONTINUOUS
 62
    1
370
    5
100
AcDbLine
 10
198.480007
 20
180.3711
 11
140.986657
 21
180.3711
  0
LINE
  5
344
100
AcDbEntity
  8
1
  6
CONTINUOUS
 62
    1
370
    5
100
AcDbLine
 10
131.64
 20
175.3711
 11
140.986657
 21
180.3711
  0
LINE
  5
345
100
AcDbEntity
  8
1
  6
CONTINUOUS
 62
    1
370
    5
100
AcDbLine
 10
111.593342
 20
180.3711
 11
120.94
 21
175.3711
  0
LINE
  5
346
100
AcDbEntity
  8
1
  6
CONTINUOUS
 62
    1
370
    5
100
AcDbLine
 10
111.593342
 20
180.3711
 11
110.384199
 21
180.3711
  0
LINE
  5
347
100
AcDbEntity
  8
1
  6
CONTINUOUS
 62
    1
370
    5
100
AcDbLine
 10
96.465
 20
175.3711
 11
110.384199
 21
180.3711
  0
LINE
  5
348
100
AcDbEntity
  8
1
  6
CONTINUOUS
 62
    1
370
    5
100
AcDbLine
 10
89.11499999999999
 20
175.3711
 11
75.195801
 21
180.3711
  0
LINE
  5
349
100
AcDbEntity
  8
1
  6
CONTINUOUS
 62
    1
370
    5
100
AcDbLine
 10
132.29
 20
170.3711
 11
193.480007
 21
170.3711
  0
LINE
  5
34A
100
AcDbEntity
  8
1
  6
CONTINUOUS
 62
    1
370
    5
100
AcDbLine
 10
132.29
 20
173.3711
 11
132.29
 21
170.3711
  0
LINE
  5
34B
100
AcDbEntity
  8
1
  6
CONTINUOUS
 62
    1
370
    5
100
AcDbLine
 10
131.64
 20
173.3711
 11
132.29
 21
173.3711
  0
LINE
  5
34C
100
AcDbEntity
  8
1
  6
CONTINUOUS
 62
    1
370
    5
100
AcDbLine
 10
120.29
 20
170.3711
 11
120.29
 21
173.3711
  0
LINE
  5
34D
100
AcDbEntity
  8
1
  6
CONTINUOUS
 62
    1
370
    5
100
AcDbLine
 10
118.29
 20
170.3711
 11
120.29
 21
170.3711
  0
LINE
  5
34E
100
AcDbEntity
  8
1
  6
CONTINUOUS
 62
    1
370
    5
100
AcDbLine
 10
101.29
 20
173.3711
 11
101.29
 21
170.3711
  0
LINE
  5
34F
100
AcDbEntity
  8
1
  6
CONTINUOUS
 62
    1
370
    5
100
AcDbLine
 10
96.465
 20
173.3711
 11
101.29
 21
173.3711
  0
LINE
  5
350
100
AcDbEntity
  8
1
  6
CONTINUOUS
 62
    1
370
    5
100
AcDbLine
 10
84.29000000000001
 20
170.3711
 11
84.29000000000001
 21
173.3711
  0
LINE
  5
351
100
AcDbEntity
  8
1
  6
CONTINUOUS
 62
    1
370
    5
100
AcDbLine
 10
69.29000000000001
 20
170.3711
 11
84.29000000000001
 21
170.3711
  0
LINE
  5
352
100
AcDbEntity
  8
1
  6
CONTINUOUS
 62
    1
370
    5
100
AcDbLine
 10
59.29
 20
96.090367
 11
59.29
 21
175.3711
  0
LINE
  5
353
100
AcDbEntity
  8
1
  6
CONTINUOUS
 62
    1
370
    5
100
AcDbLine
 10
0.967256
 20
59.530393
 11
56.790033
 21
91.760259
  0
LINE
  5
354
100
AcDbEntity
  8
1
  6
CONTINUOUS
 62
    1
370
    5
100
AcDbLine
 10
27.948974
 20
2.793984
 11
-0.8628980000000001
 21
52.700389
  0
LINE
  5
355
100
AcDbEntity
  8
1
  6
CONTINUOUS
 62
    1
370
    5
100
AcDbLine
 10
90.613204
 20
33.200123
 11
34.779195
 21
0.963772
  0
LINE
  5
356
100
AcDbEntity
  8
1
  6
CONTINUOUS
 62
    1
370
    5
100
AcDbLine
 10
198.480007
 20
33.870016
 11
93.113238
 21
33.870016
  0
LINE
  5
357
100
AcDbEntity
  8
1
  6
CONTINUOUS
 62
    1
370
    5
100
AcDbLine
 10
203.480007
 20
175.3711
 11
203.480007
 21
38.870016
  0
LINE
  5
358
100
AcDbEntity
  8
1
  6
CONTINUOUS
 62
    1
370
    5
100
AcDbLine
 10
75.195801
 20
180.3711
 11
64.29000000000001
 21
180.3711
  0
ARC
  5
359
100
AcDbEntity
  8
1
  6
CONTINUOUS
 62
    1
370
    5
100
AcDbCircle
 10
198.480007
 20
175.3711
 40
5.000000000000028
100
AcDbArc
 50
0
 51
90
  0
ARC
  5
35A
100
AcDbEntity
  8
1
  6
CONTINUOUS
 62
    1
370
    5
100
AcDbCircle
 10
32.279161
 20
5.29388
 40
5.000000000000002
100
AcDbArc
 50
209.998619
 51
300.000439
  0
ARC
  5
35B
100
AcDbEntity
  8
1
  6
CONTINUOUS
 62
    1
370
    5
100
AcDbCircle
 10
3.467289
 20
55.200285
 40
4.999999999999983
100
AcDbArc
 50
120.000439
 51
209.998619
  0
ARC
  5
35C
100
AcDbEntity
  8
1
  6
CONTINUOUS
 62
    1
370
    5
100
AcDbCircle
 10
54.29
 20
96.090367
 40
4.999999999999979
100
AcDbArc
 50
300.000439
 51
0
  0
ARC
  5
35D
100
AcDbEntity
  8
1
  6
CONTINUOUS
 62
    1
370
    5
100
AcDbCircle
 10
93.113238
 20
28.870016
 40
5.000000000000007
100
AcDbArc
 50
90
 51
120.000439
  0
ARC
  5
35E
100
AcDbEntity
  8
1
  6
CONTINUOUS
 62
    1
370
    5
100
AcDbCircle
 10
198.480007
 20
38.870016
 40
5.000000000000007
100
AcDbArc
 50
270
 51
0
  0
ARC
  5
35F
100
AcDbEntity
  8
1
  6
CONTINUOUS
 62
    1
370
    5
100
AcDbCircle
 10
64.29000000000001
 20
175.3711
 40
5
100
AcDbArc
 50
90
 51
180
  0
ENDSEC
  0
SECTION
  2
OBJECTS
  0
DICTIONARY
  5
C
330
0
100
AcDbDictionary
281
    1
  3
ACAD_GROUP
350
D
  0
DICTIONARY
  5
D
330
C
100
AcDbDictionary
281
    1
  0
ENDSEC
  0
EOF
